<svg width="40" height="40" viewBox="0 0 40 40" fill="none" xmlns="http://www.w3.org/2000/svg">
<path d="M1.5 26.5H13.5V38.5H1.5V26.5Z" fill="#C1EDE6"/>
<path d="M13 27V38H2V27H13ZM14 26H1V39H14V26Z" fill="#73B7AB"/>
<path d="M25.8108 7.5L32.4999 0.810654L39.1892 7.49977L32.5001 14.1891L25.8108 7.5Z" fill="#C1EDE6"/>
<path d="M32.5 1.51803L38.482 7.50003L32.5 13.482L26.518 7.50003L32.5 1.51803ZM32.5 0.103027L25.103 7.50003L32.5 14.897L39.897 7.50003L32.5 0.103027Z" fill="#73B7AB"/>
<path d="M7.5 1.5C5.9087 1.5 4.38258 2.13214 3.25736 3.25736C2.13214 4.38258 1.5 5.9087 1.5 7.5C1.5 9.0913 2.13214 10.6174 3.25736 11.7426C4.38258 12.8679 5.9087 13.5 7.5 13.5C9.0913 13.5 10.6174 12.8679 11.7426 11.7426C12.8679 10.6174 13.5 9.0913 13.5 7.5C13.5 5.9087 12.8679 4.38258 11.7426 3.25736C10.6174 2.13214 9.0913 1.5 7.5 1.5Z" fill="#C1EDE6"/>
<path d="M7.5 2C10.533 2 13 4.467 13 7.5C13 10.533 10.533 13 7.5 13C4.467 13 2 10.533 2 7.5C2 4.467 4.467 2 7.5 2ZM7.5 1C3.91 1 1 3.91 1 7.5C1 11.09 3.91 14 7.5 14C11.09 14 14 11.09 14 7.5C14 3.91 11.09 1 7.5 1Z" fill="#73B7AB"/>
<path d="M32.5 26.5C30.9087 26.5 29.3826 27.1321 28.2574 28.2574C27.1321 29.3826 26.5 30.9087 26.5 32.5C26.5 34.0913 27.1321 35.6174 28.2574 36.7426C29.3826 37.8679 30.9087 38.5 32.5 38.5C34.0913 38.5 35.6174 37.8679 36.7426 36.7426C37.8679 35.6174 38.5 34.0913 38.5 32.5C38.5 30.9087 37.8679 29.3826 36.7426 28.2574C35.6174 27.1321 34.0913 26.5 32.5 26.5Z" fill="#C1EDE6"/>
<path d="M32.5 27C35.533 27 38 29.467 38 32.5C38 35.533 35.533 38 32.5 38C29.467 38 27 35.533 27 32.5C27 29.467 29.467 27 32.5 27ZM32.5 26C28.91 26 26 28.91 26 32.5C26 36.09 28.91 39 32.5 39C36.09 39 39 36.09 39 32.5C39 28.91 36.09 26 32.5 26Z" fill="#73B7AB"/>
<path d="M7 17H8V24H7V17Z" fill="#73B7AB"/>
<path d="M7.5 15.6001L5.5 18.0001H9.5L7.5 15.6001Z" fill="#73B7AB"/>
<path d="M22 7V8H16V7H22Z" fill="#73B7AB"/>
<path d="M23.4 7.5L21 5.5V9.5L23.4 7.5Z" fill="#73B7AB"/>
<path d="M33 23H32V16H33V23Z" fill="#73B7AB"/>
<path d="M32.5 24.4L34.5 22H30.5L32.5 24.4Z" fill="#73B7AB"/>
</svg>
