<svg width="30" height="30" viewBox="0 0 30 30" fill="none" xmlns="http://www.w3.org/2000/svg">
<path d="M15 11C13.9391 11 12.9217 11.4214 12.1716 12.1716C11.4214 12.9217 11 13.9391 11 15C11 16.0609 11.4214 17.0783 12.1716 17.8284C12.9217 18.5786 13.9391 19 15 19C16.0609 19 17.0783 18.5786 17.8284 17.8284C18.5786 17.0783 19 16.0609 19 15C19 13.9391 18.5786 12.9217 17.8284 12.1716C17.0783 11.4214 16.0609 11 15 11Z" fill="#83D1C4"/>
<path d="M19.999 3H9.999C6.14 3 3 6.141 3 10.001V20.001C3 23.86 6.141 27 10.001 27H20.001C23.86 27 27 23.859 27 19.999V9.999C27 6.14 23.859 3 19.999 3ZM15 21C11.691 21 9 18.309 9 15C9 11.691 11.691 9 15 9C18.309 9 21 11.691 21 15C21 18.309 18.309 21 15 21ZM22 9C21.448 9 21 8.552 21 8C21 7.448 21.448 7 22 7C22.552 7 23 7.448 23 8C23 8.552 22.552 9 22 9Z" fill="#83D1C4"/>
</svg>
