<svg width="40" height="40" viewBox="0 0 40 40" fill="none" xmlns="http://www.w3.org/2000/svg">
<path d="M2.12601 18.5H8.50001V1.5H31.5V18.5H37.874L20 38.255L2.12601 18.5Z" fill="#C1EDE6"/>
<path d="M31 2V18V19H32H36.747L20 37.509L3.253 19H8H9V18V2H31ZM32 1H8V18H1L20 39L39 18H32V1Z" fill="#73B7AB"/>
<path d="M17.659 12.538C17.659 11.662 18.444 10.907 20.059 10.907C21.888 10.907 23.204 11.425 24.227 12.046V9.09003C23.467 8.66703 22.318 8.41903 20.778 8.34603V6.35303H19.18V8.38903C17.844 8.52003 16.772 8.99003 15.961 9.79603C15.151 10.602 14.745 11.578 14.745 12.724C14.745 17.252 22.344 17.392 22.344 19.873C22.344 20.756 21.238 21.438 20.004 21.438C17.478 21.438 15.465 20.369 15.042 20.026V23.058C16.319 23.722 17.699 24.058 19.18 24.065V26.375H20.778V24C22.216 23.839 23.321 23.389 24.096 22.648C24.868 21.907 25.255 20.931 25.255 19.719C25.255 14.886 17.659 15.255 17.659 12.538Z" fill="#73B7AB"/>
</svg>
