<svg width="40" height="40" viewBox="0 0 40 40" fill="none" xmlns="http://www.w3.org/2000/svg">
<path d="M20 38.5C9.799 38.5 1.5 30.201 1.5 20C1.5 9.799 9.799 1.5 20 1.5C30.201 1.5 38.5 9.799 38.5 20C38.5 30.201 30.201 38.5 20 38.5Z" fill="#C1EDE6"/>
<path d="M20 2C29.925 2 38 10.075 38 20C38 29.925 29.925 38 20 38C10.075 38 2 29.925 2 20C2 10.075 10.075 2 20 2ZM20 1C9.507 1 1 9.507 1 20C1 30.493 9.507 39 20 39C30.493 39 39 30.493 39 20C39 9.507 30.493 1 20 1Z" fill="#83D1C4"/>
<path d="M17.024 15.1359C17.024 14.0229 18.022 13.0629 20.075 13.0629C22.4 13.0629 24.073 13.7219 25.374 14.5099V10.7529C24.407 10.2149 22.947 9.89893 20.99 9.80693V7.27393H18.958V9.86193C17.26 10.0289 15.896 10.6259 14.867 11.6509C13.838 12.6759 13.321 13.9169 13.321 15.3729C13.321 21.1279 22.981 21.3059 22.981 24.4599C22.981 25.5829 21.575 26.4499 20.006 26.4499C16.795 26.4499 14.236 25.0909 13.698 24.6549V28.5099C15.322 29.3539 17.075 29.7809 18.958 29.7899V32.7259H20.99V29.7059C22.818 29.5019 24.222 28.9289 25.207 27.9879C26.189 27.0459 26.68 25.8049 26.68 24.2649C26.68 18.1209 17.024 18.5899 17.024 15.1359Z" fill="#73B7AB"/>
</svg>
