<svg width="40" height="40" viewBox="0 0 40 40" fill="none" xmlns="http://www.w3.org/2000/svg">
<path d="M20 35.5C11.453 35.5 4.5 28.547 4.5 20C4.5 11.453 11.453 4.5 20 4.5C28.547 4.5 35.5 11.453 35.5 20C35.5 28.547 28.547 35.5 20 35.5ZM20 8.5C13.659 8.5 8.5 13.659 8.5 20C8.5 26.341 13.659 31.5 20 31.5C26.341 31.5 31.5 26.341 31.5 20C31.5 13.659 26.341 8.5 20 8.5Z" fill="#C1EDE6"/>
<path d="M20 5C28.271 5 35 11.729 35 20C35 28.271 28.271 35 20 35C11.729 35 5 28.271 5 20C5 11.729 11.729 5 20 5ZM20 32C26.617 32 32 26.617 32 20C32 13.383 26.617 8 20 8C13.383 8 8 13.383 8 20C8 26.617 13.383 32 20 32ZM20 4C11.163 4 4 11.163 4 20C4 28.837 11.163 36 20 36C28.837 36 36 28.837 36 20C36 11.163 28.837 4 20 4ZM20 31C13.925 31 9 26.075 9 20C9 13.925 13.925 9 20 9C26.075 9 31 13.925 31 20C31 26.075 26.075 31 20 31Z" fill="#83D1C4"/>
<path d="M19.5 1.5H20.5V8.5H19.5V1.5Z" fill="#C1EDE6"/>
<path d="M20 2V8V2ZM21 1H19V9H21V1Z" fill="#73B7AB"/>
<path d="M31.5 19.5H38.5V20.5H31.5V19.5Z" fill="#C1EDE6"/>
<path d="M39 19H31V21H39V19Z" fill="#73B7AB"/>
<path d="M1.5 19.5H8.5V20.5H1.5V19.5Z" fill="#C1EDE6"/>
<path d="M9 19H1V21H9V19Z" fill="#73B7AB"/>
<path d="M19.5 31.5H20.5V38.5H19.5V31.5Z" fill="#C1EDE6"/>
<path d="M20 32V38V32ZM21 31H19V39H21V31Z" fill="#73B7AB"/>
</svg>
