<svg width="118" height="21" viewBox="0 0 118 21" fill="none" xmlns="http://www.w3.org/2000/svg">
<path fill-rule="evenodd" clip-rule="evenodd" d="M12.6645 11.5396L8.01657 12.3396C6.04464 12.693 5.05752 13.4786 5.05752 14.6941C5.05752 16.0887 6.02853 16.7836 7.97515 16.7836C9.47538 16.7836 10.6328 16.3776 11.4473 15.5681C12.2572 14.7586 12.6645 13.6792 12.6645 12.3372V11.5396ZM6.79245 20.9983C4.62724 20.9983 2.95214 20.4372 1.77405 19.3124C0.591348 18.1901 0 16.6952 0 14.8302C0 13.0751 0.609756 11.6733 1.82927 10.6322C3.04878 9.58866 4.93557 8.86271 7.48734 8.45437L12.6645 7.62575V7.43471C12.6645 5.46942 11.5048 4.48319 9.19466 4.48319C7.02715 4.48319 5.83295 5.30226 5.61206 6.93563H0.441786C0.614358 4.97033 1.40129 3.32264 2.80488 1.99254C4.20847 0.664831 6.32536 0.000976562 9.15785 0.000976562C11.9627 0.000976562 14.0773 0.650503 15.5062 1.95433C16.9351 3.25816 17.6484 5.09689 17.6484 7.47292V16.9388C17.6484 18.4456 17.8325 19.6444 18.2029 20.5399H13.1431C13.1201 20.5399 13.0948 20.4491 13.0695 20.2724C13.0465 20.0933 13.0143 19.8163 12.9775 19.4462C12.9406 19.076 12.9222 18.7011 12.9222 18.3167C11.7165 20.1052 9.67326 20.9983 6.79245 20.9983Z" fill="white"/>
<path fill-rule="evenodd" clip-rule="evenodd" d="M23.8705 17.9909C22.0366 15.985 21.1208 13.4896 21.1208 10.4999C21.1208 7.51015 22.0366 5.01234 23.8705 3.00884C25.7043 1.00294 28.0237 0 30.8286 0C33.5875 0 35.7596 0.804744 37.3449 2.41423C38.9326 4.02372 39.8369 5.82425 40.0601 7.8182H34.6689C34.471 6.94898 34.0177 6.23498 33.3044 5.67142C32.5888 5.11024 31.7536 4.82846 30.7918 4.82846C29.4135 4.82846 28.3297 5.34665 27.5451 6.38064C26.7559 7.41463 26.3624 8.78771 26.3624 10.4999C26.3624 12.2121 26.7559 13.5827 27.5451 14.6191C28.3297 15.6531 29.4135 16.1713 30.7918 16.1713C31.7536 16.1713 32.5888 15.8895 33.3044 15.3283C34.0177 14.7648 34.471 14.0508 34.6689 13.1816H40.0601C39.8369 15.1731 38.9326 16.976 37.3449 18.5855C35.7596 20.195 33.5875 20.9998 30.8286 20.9998C28.0237 20.9998 25.7043 19.9968 23.8705 17.9909Z" fill="white"/>
<path fill-rule="evenodd" clip-rule="evenodd" d="M44.4712 17.9909C42.6373 15.985 41.7215 13.4896 41.7215 10.4999C41.7215 7.51015 42.6373 5.01234 44.4712 3.00884C46.3051 1.00294 48.6244 0 51.4293 0C54.1882 0 56.3603 0.804744 57.9456 2.41423C59.5333 4.02372 60.4376 5.82425 60.6608 7.8182H55.2696C55.0717 6.94898 54.6184 6.23498 53.9051 5.67142C53.1895 5.11024 52.3543 4.82846 51.3948 4.82846C50.0142 4.82846 48.9305 5.34665 48.1458 6.38064C47.3566 7.41463 46.9631 8.78771 46.9631 10.4999C46.9631 12.2121 47.3566 13.5827 48.1458 14.6191C48.9305 15.6531 50.0142 16.1713 51.3948 16.1713C52.3543 16.1713 53.1895 15.8895 53.9051 15.3283C54.6184 14.7648 55.0717 14.0508 55.2696 13.1816H60.6608C60.4376 15.1731 59.5333 16.976 57.9456 18.5855C56.3603 20.195 54.1882 20.9998 51.4293 20.9998C48.6244 20.9998 46.3051 19.9968 44.4712 17.9909Z" fill="white"/>
<path fill-rule="evenodd" clip-rule="evenodd" d="M74.8759 0.307739V5.40366C74.5054 5.32724 74.1603 5.28903 73.8427 5.28903C72.2896 5.28903 71.1276 5.7117 70.3522 6.55227C69.5768 7.39522 69.1902 8.72531 69.1902 10.5378V20.5386H63.9463V0.460568H68.7852V3.06584C69.892 1.20323 71.7121 0.269531 74.2477 0.269531L74.8759 0.307739Z" fill="white"/>
<path fill-rule="evenodd" clip-rule="evenodd" d="M89.8658 11.8792V0.459961H95.1074V20.538H90.2731V18.0879C89.2606 20.0293 87.3669 20.9988 84.5851 20.9988C82.3209 20.9988 80.5791 20.2777 79.3619 18.8353C78.1424 17.393 77.5349 15.4444 77.5349 12.992V0.459961H82.7765V12.3783C82.7765 15.0098 83.8488 16.3256 85.9864 16.3256C87.268 16.3256 88.2344 15.9411 88.8856 15.1746C89.5368 14.4081 89.8658 13.3096 89.8658 11.8792Z" fill="white"/>
<mask id="mask0" mask-type="alpha" maskUnits="userSpaceOnUse" x="98" y="0" width="20" height="21">
<path d="M98.6903 0H118V20.9998H98.6903V0Z" fill="white"/>
</mask>
<g mask="url(#mask0)">
<path fill-rule="evenodd" clip-rule="evenodd" d="M108.364 4.36998C107.181 4.36998 106.208 4.70907 105.444 5.38486C104.682 6.06065 104.192 6.98719 103.971 8.16206H112.758C112.558 7.01345 112.08 6.09409 111.316 5.40396C110.554 4.71384 109.567 4.36998 108.364 4.36998ZM117.926 12.0712H103.897C104.068 13.4514 104.56 14.5045 105.372 15.2328C106.187 15.9612 107.257 16.3241 108.584 16.3241C109.422 16.3241 110.179 16.1403 110.855 15.7677C111.532 15.4 112.017 14.8555 112.314 14.1391H117.593C117.027 16.1832 115.913 17.8381 114.254 19.1013C112.59 20.367 110.653 20.9998 108.437 20.9998C105.582 20.9998 103.242 20.0159 101.422 18.0482C99.5992 16.0829 98.6903 13.5517 98.6903 10.4617C98.6903 7.47194 99.5992 4.98129 101.422 2.98973C103.242 0.998169 105.57 0 108.4 0C111.231 0 113.538 0.991005 115.322 2.97063C117.107 4.95025 118 7.44806 118 10.4617L117.926 12.0712Z" fill="white"/>
</g>
</svg>
