<?xml version="1.0" encoding="UTF-8"?>
<svg width="164px" height="125px" viewBox="0 0 164 125" version="1.1" xmlns="http://www.w3.org/2000/svg" xmlns:xlink="http://www.w3.org/1999/xlink">
    <!-- Generator: Sketch 55.2 (78181) - https://sketchapp.com -->
    <title>checkPoints</title>
    <desc>Created with Sketch.</desc>
    <g id="page" stroke="none" stroke-width="1" fill="none" fill-rule="evenodd">
        <g id="large" transform="translate(-888.000000, -831.000000)" fill-rule="nonzero">
            <g id="benefits" transform="translate(70.000000, 821.000000)">
                <g id="checkPoints" transform="translate(818.000000, 10.000000)">
                    <path d="M156.190476,70.2857143 C156.190476,74.604381 152.69181,78.0952381 148.380952,78.0952381 L7.80952381,78.0952381 C3.4947619,78.0952381 0,74.604381 0,70.2857143 L0,7.80952381 C0,3.4947619 3.4947619,0 7.80952381,0 L148.380952,0 C152.69181,0 156.190476,3.4947619 156.190476,7.80952381 L156.190476,70.2857143 Z" id="Path" fill="#D7D9E6"></path>
                    <rect id="Rectangle" fill="#F7F7F7" x="7.80952381" y="7.80952381" width="140.571429" height="62.4761905"></rect>
                    <path d="M89.8095238,39.047619 C89.8095238,45.5139048 84.5654286,50.7619048 78.0952381,50.7619048 C71.6250476,50.7619048 66.3809524,45.5139048 66.3809524,39.047619 C66.3809524,32.5813333 71.6250476,27.3333333 78.0952381,27.3333333 C84.5654286,27.3333333 89.8095238,32.5813333 89.8095238,39.047619 Z M39.047619,27.3333333 C32.5774286,27.3333333 27.3333333,32.5813333 27.3333333,39.047619 C27.3333333,45.5139048 32.5774286,50.7619048 39.047619,50.7619048 C45.5178095,50.7619048 50.7619048,45.5139048 50.7619048,39.047619 C50.7619048,32.5813333 45.5178095,27.3333333 39.047619,27.3333333 Z M117.142857,27.3333333 C110.672667,27.3333333 105.428571,32.5813333 105.428571,39.047619 C105.428571,45.5139048 110.672667,50.7619048 117.142857,50.7619048 C123.613048,50.7619048 128.857143,45.5139048 128.857143,39.047619 C128.857143,32.5813333 123.613048,27.3333333 117.142857,27.3333333 Z" id="Shape" fill="#1F343B"></path>
                    <path d="M164,85.9047619 C164,107.470762 146.514476,124.952381 124.952381,124.952381 C103.386381,124.952381 85.9047619,107.470762 85.9047619,85.9047619 C85.9047619,64.3387619 103.386381,46.8571429 124.952381,46.8571429 C146.514476,46.8571429 164,64.3387619 164,85.9047619" id="Path" fill="#53AAA2"></path>
                    <polygon id="Path" fill="#FFFFFF" points="142.492571 67.747619 120.274476 90.0086667 109.622286 79.3838095 101.332476 87.6892381 120.290095 106.603905 150.798 76.0374286"></polygon>
                </g>
            </g>
        </g>
    </g>
</svg>