<?xml version="1.0" encoding="UTF-8"?>
<svg width="61px" height="86px" viewBox="0 0 61 86" version="1.1" xmlns="http://www.w3.org/2000/svg" xmlns:xlink="http://www.w3.org/1999/xlink">
    <!-- Generator: Sketch 64 (93537) - https://sketch.com -->
    <title>icons8-natural_user_interface_2</title>
    <desc>Created with Sketch.</desc>
    <g id="screens" stroke="none" stroke-width="1" fill="none" fill-rule="evenodd">
        <g id="s4-home" transform="translate(-1580.000000, -2339.000000)" fill="#FFFFFF" fill-rule="nonzero">
            <g id="prototype" transform="translate(1440.000000, 2212.000000)">
                <g id="icons8-natural_user_interface_2" transform="translate(139.000000, 127.000000)">
                    <path d="M30.728,41.614 C30.452,41.614 30.228,41.838 30.228,42.114 L30.228,61.114 C30.228,61.39 30.452,61.614 30.728,61.614 C31.004,61.614 31.228,61.39 31.228,61.114 L31.228,42.114 C31.228,41.838 31.005,41.614 30.728,41.614 Z M40.728,41.614 C40.452,41.614 40.228,41.838 40.228,42.114 L40.228,56.114 C40.228,56.39 40.452,56.614 40.728,56.614 C41.004,56.614 41.228,56.39 41.228,56.114 L41.228,42.114 C41.228,41.838 41.005,41.614 40.728,41.614 Z M49.728,41.614 C49.452,41.614 49.228,41.838 49.228,42.114 L49.228,52.114 C49.228,52.39 49.452,52.614 49.728,52.614 C50.004,52.614 50.228,52.39 50.228,52.114 L50.228,42.114 C50.228,41.838 50.005,41.614 49.728,41.614 Z M54.728,67.614 L52.728,67.614 C52.452,67.614 52.228,67.838 52.228,68.114 C52.228,68.39 52.452,68.614 52.728,68.614 L54.728,68.614 C55.004,68.614 55.228,68.39 55.228,68.114 C55.228,67.838 55.005,67.614 54.728,67.614 Z M56.728,67.614 L55.728,67.614 C55.452,67.614 55.228,67.838 55.228,68.114 C55.228,68.39 55.452,68.614 55.728,68.614 L56.728,68.614 C57.004,68.614 57.228,68.39 57.228,68.114 C57.228,67.838 57.005,67.614 56.728,67.614 Z M40.728,57.614 C40.452,57.614 40.228,57.838 40.228,58.114 L40.228,60.114 C40.228,60.39 40.452,60.614 40.728,60.614 C41.004,60.614 41.228,60.39 41.228,60.114 L41.228,58.114 C41.228,57.838 41.005,57.614 40.728,57.614 Z" id="Shape"></path>
                    <path d="M40.378,60.764 C40.278,60.854 40.229,60.984 40.229,61.114 C40.229,61.244 40.279,61.374 40.378,61.464 C40.469,61.564 40.599,61.614 40.729,61.614 C40.859,61.614 40.989,61.564 41.079,61.464 C41.18,61.374 41.229,61.244 41.229,61.114 C41.229,60.984 41.179,60.854 41.079,60.764 C40.898,60.574 40.558,60.574 40.378,60.764 Z M52.228,73.614 C50.574,73.614 49.228,74.96 49.228,76.614 C49.228,78.268 50.574,79.614 52.228,79.614 C53.882,79.614 55.228,78.268 55.228,76.614 C55.228,74.96 53.883,73.614 52.228,73.614 Z M52.228,78.614 C51.125,78.614 50.228,77.717 50.228,76.614 C50.228,75.511 51.125,74.614 52.228,74.614 C53.331,74.614 54.228,75.511 54.228,76.614 C54.228,77.717 53.331,78.614 52.228,78.614 Z" id="Shape"></path>
                    <path d="M59.389,32.758 C58.224,31.599 56.693,30.962 55.074,30.962 C55.065,30.962 55.055,30.962 55.046,30.962 C53.191,30.971 51.913,31.356 51.04,31.923 C50.426,29.274 48.046,27.293 45.212,27.293 C43.543,27.293 42.031,27.98 40.945,29.086 C40.299,27.039 38.611,25.443 36.526,25.093 C34.956,24.829 33.421,25.256 32.229,26.181 L32.229,14.193 C32.229,11.117 29.727,8.614 26.651,8.614 L26.376,8.614 C26.218,8.614 26.063,8.652 25.922,8.723 C25.392,8.993 20.795,11.434 21.23,14.543 L21.23,47.306 C19.924,46.801 18.127,45.561 16.377,44.353 C12.807,41.891 9.116,39.344 6.162,40.122 C3.544,40.811 0.806,42.865 0.982,45.746 C1.056,46.957 2.924,48.791 10.309,55.438 C15.24,59.876 22.658,66.553 23.229,68.565 L23.229,84.613 C23.229,85.165 23.676,85.613 24.229,85.613 L60.229,85.613 C60.782,85.613 61.229,85.165 61.229,84.613 L61.229,37.163 C61.228,35.503 60.575,33.939 59.389,32.758 Z M59.228,83.614 L25.228,83.614 L25.228,68.614 L50.728,68.614 C51.004,68.614 51.228,68.39 51.228,68.114 C51.228,67.838 51.004,67.614 50.728,67.614 L24.987,67.614 C23.851,65.064 18.885,60.467 11.646,53.952 C7.994,50.665 3.461,46.585 2.974,45.544 C2.935,43.903 4.787,42.553 6.67,42.058 C8.721,41.512 12.189,43.897 15.239,46.001 C17.981,47.893 20.349,49.526 22.218,49.543 C22.48,49.524 22.741,49.441 22.931,49.253 C23.12,49.065 23.227,48.809 23.227,48.543 L23.227,14.467 C23.227,14.41 23.222,14.354 23.212,14.298 C22.993,13.019 25.293,11.343 26.622,10.614 L26.648,10.614 C28.621,10.614 30.226,12.219 30.226,14.193 L30.226,29.283 C30.226,29.774 30.583,30.193 31.068,30.27 C31.556,30.351 32.023,30.062 32.176,29.594 C32.752,27.835 34.434,26.769 36.192,27.065 C37.921,27.355 39.226,29.017 39.226,30.931 L39.226,33.275 C39.226,33.827 39.673,34.275 40.226,34.275 C40.779,34.275 41.226,33.827 41.226,33.275 C41.226,31.079 43.012,29.293 45.208,29.293 C47.404,29.293 49.19,31.08 49.19,33.291 L49.225,35.508 C49.234,36.055 49.679,36.492 50.225,36.492 C50.228,36.492 50.23,36.492 50.233,36.492 C50.782,36.488 51.225,36.041 51.225,35.492 C51.225,34.805 51.225,32.979 55.051,32.962 C55.057,32.962 55.064,32.962 55.07,32.962 C56.157,32.962 57.187,33.393 57.974,34.176 C58.781,34.979 59.225,36.04 59.225,37.164 L59.225,83.614 L59.228,83.614 Z" id="Shape"></path>
                    <path d="M26.727,4.849 C21.65,4.849 17.519,9.174 17.519,14.491 C17.519,14.767 17.743,14.991 18.019,14.991 C18.295,14.991 18.519,14.767 18.519,14.491 C18.519,9.726 22.201,5.849 26.727,5.849 C31.253,5.849 34.935,9.725 34.935,14.491 C34.935,14.767 35.159,14.991 35.435,14.991 C35.711,14.991 35.935,14.767 35.935,14.491 C35.935,9.174 31.805,4.849 26.727,4.849 Z" id="Path"></path>
                    <path d="M14.133,14.991 C14.409,14.991 14.633,14.767 14.633,14.491 C14.633,7.476 20.059,1.769 26.728,1.769 C33.397,1.769 38.823,7.476 38.823,14.491 C38.823,14.767 39.047,14.991 39.323,14.991 C39.599,14.991 39.823,14.767 39.823,14.491 C39.823,6.925 33.949,0.769 26.728,0.769 C19.507,0.769 13.633,6.925 13.633,14.491 C13.633,14.767 13.856,14.991 14.133,14.991 Z" id="Path"></path>
                </g>
            </g>
        </g>
    </g>
</svg>