<?xml version="1.0" encoding="UTF-8"?>
<svg width="44px" height="40px" viewBox="0 0 44 40" version="1.1" xmlns="http://www.w3.org/2000/svg" xmlns:xlink="http://www.w3.org/1999/xlink">
    <!-- Generator: Sketch 55.2 (78181) - https://sketchapp.com -->
    <title>costs</title>
    <desc>Created with Sketch.</desc>
    <g id="page" stroke="none" stroke-width="1" fill="none" fill-rule="evenodd">
        <g id="large" transform="translate(-138.000000, -3210.000000)" fill="#162751" fill-rule="nonzero">
            <g id="costs" transform="translate(70.000000, 3140.000000)">
                <g transform="translate(68.000000, 70.000000)">
                    <path d="M22,8 C20.894,8 20,8.896 20,10 C20,11.104 20.894,12 22,12 C23.106,12 24,11.104 24,10 C24,8.896 23.106,8 22,8 Z" id="Path"></path>
                    <circle id="Oval" cx="13" cy="3" r="3"></circle>
                    <circle id="Oval" cx="31" cy="3" r="3"></circle>
                    <path d="M16,20 C16,16.686 18.686,14 22,14 C25.314,14 28,16.686 28,20 L16,20 Z" id="Path"></path>
                    <rect id="Rectangle" x="14" y="36" width="16" height="4"></rect>
                    <rect id="Rectangle" x="18" y="30" width="8" height="8"></rect>
                    <path d="M40,4 L38,4 L38,8 L40,8 L40,28 L4,28 L4,8 L6,8 L6,4 L4,4 C1.79,4 0,5.79 0,8 L0,28 C0,30.21 1.79,32 4,32 L40,32 C42.21,32 44,30.21 44,28 L44,8 C44,5.79 42.21,4 40,4 Z" id="Path"></path>
                    <path d="M32,0 L12,0 C10.896,0 10,0.896 10,2 L10,18 L10,19.142 L10,22 L34,22 L34,19.142 L34,18 L34,2 C34,0.896 33.104,0 32,0 Z M14,18 L14,4 L30,4 L30,18 L14,18 Z" id="Shape"></path>
                    <polygon id="Path" opacity="0.2" points="32 4 32 20 12 20 12 4 4 4 4 28 40 28 40 4"></polygon>
                    <rect id="Rectangle" x="8" y="18" width="28" height="4"></rect>
                </g>
            </g>
        </g>
    </g>
</svg>