<?xml version="1.0" encoding="UTF-8"?>
<svg width="75px" height="72px" viewBox="0 0 75 72" version="1.1" xmlns="http://www.w3.org/2000/svg" xmlns:xlink="http://www.w3.org/1999/xlink">
    <!-- Generator: Sketch 56.2 (81672) - https://sketch.com -->
    <title>churn</title>
    <desc>Created with Sketch.</desc>
    <g id="screens" stroke="none" stroke-width="1" fill="none" fill-rule="evenodd">
        <g id="s4-home" transform="translate(-1319.000000, -1008.000000)" stroke="#3B3D3E">
            <g id="help" transform="translate(680.000000, 760.000000)">
                <g id="how1" transform="translate(0.000000, 196.000000)">
                    <g id="churn" transform="translate(640.000000, 53.000000)">
                        <path d="M67.889,23 C62.991,9.58 50.114,0 35,0 C15.67,0 0,15.67 0,35 C0,54.33 15.67,70 35,70 C50.114,70 62.991,60.42 67.889,47" id="Path" stroke-width="2" stroke-linecap="round"></path>
                        <path d="M50.5,8.727 C49.848,8.342 49.181,7.98 48.5,7.643" id="Path" stroke-linecap="round" stroke-linejoin="round"></path>
                        <path d="M53.5,10.749 C53.172,10.498 52.838,10.254 52.5,10.017" id="Path" stroke-linecap="round" stroke-linejoin="round"></path>
                        <path d="M62.396,21.607 C60.695,18.146 58.35,15.015 55.5,12.417" id="Path" stroke-linecap="round" stroke-linejoin="round"></path>
                        <path d="M45.5,6.356 C28.008,-0.02 8.021,11.702 4.917,30.048 C1.755,48.733 17.475,66.082 36.282,65.447 C47.375,65.073 57.501,58.281 62.396,48.372" id="Path" stroke-linecap="round" stroke-linejoin="round"></path>
                        <path d="M72.977,33.861 L63.977,25.861 C63.346,25.322 62.401,25.395 61.862,26.023 C61.323,26.652 61.395,27.599 62.024,28.138 L68.019,33.499 L34,33.499 C33.172,33.499 32.5,34.171 32.5,34.999 C32.5,35.827 33.172,36.499 34,36.499 L68.018,36.499 L62.023,41.86 C61.394,42.399 61.322,43.346 61.861,43.975 C62.158,44.321 62.578,44.498 63.001,44.498 C63.347,44.498 63.693,44.38 63.977,44.137 L72.977,36.137 C73.309,35.853 73.5,35.437 73.5,35 C73.5,34.563 73.309,34.146 72.977,33.861 Z" id="Path" stroke-linejoin="round"></path>
                    </g>
                </g>
            </g>
        </g>
    </g>
</svg>