<?xml version="1.0" encoding="UTF-8"?>
<svg width="74px" height="74px" viewBox="0 0 74 74" version="1.1" xmlns="http://www.w3.org/2000/svg" xmlns:xlink="http://www.w3.org/1999/xlink">
    <!-- Generator: Sketch 56.2 (81672) - https://sketch.com -->
    <title>mentalModel</title>
    <desc>Created with Sketch.</desc>
    <g id="screens" stroke="none" stroke-width="1" fill="none" fill-rule="evenodd">
        <g id="s4-home" transform="translate(-1320.000000, -1243.000000)">
            <g id="help" transform="translate(680.000000, 760.000000)">
                <g id="how2" transform="translate(0.000000, 432.000000)">
                    <g id="mentalModel" transform="translate(640.000000, 51.000000)">
                        <path d="M49,74 C48.448,74 48,73.553 48,73 L48,63 C48,62.447 48.448,62 49,62 L55,62 C59.962,62 64,57.963 64,53 L64,45 C64,44.604 64.233,44.247 64.594,44.086 L71.224,41.139 C71.57,40.986 71.823,40.702 71.938,40.342 C72.053,39.983 72.01,39.606 71.816,39.28 L65.309,28.328 C65.002,27.772 64.811,27.185 64.724,26.556 C62.618,11.343 48.942,0.619 33.581,2.146 C32.171,2.286 30.757,2.548 29.258,2.949 C28.723,3.094 28.176,2.775 28.033,2.241 C27.89,1.708 28.208,1.16 28.741,1.017 C30.346,0.588 31.864,0.306 33.383,0.156 C49.812,-1.477 64.45,10 66.704,26.283 C66.757,26.669 66.871,27.023 67.044,27.336 L73.535,38.26 C74.016,39.071 74.129,40.051 73.843,40.95 C73.557,41.848 72.898,42.584 72.036,42.968 L66,45.649 L66,53 C66,59.065 61.065,64 55,64 L50,64 L50,73 C50,73.553 49.552,74 49,74 Z" id="Path" fill="#3B3D3E" fill-rule="nonzero"></path>
                        <path d="M17,74 C16.448,74 16,73.553 16,73 L16,63.499 C16,57.821 14.273,52.2 11.007,47.241 C8.602,43.589 7.044,39.521 6.376,35.151 C6.293,34.605 6.668,34.094 7.214,34.011 C7.756,33.928 8.27,34.303 8.353,34.848 C8.978,38.932 10.432,42.731 12.677,46.141 C16.16,51.428 18,57.43 18,63.499 L18,73 C18,73.553 17.552,74 17,74 Z" id="Path" fill="#3B3D3E" fill-rule="nonzero"></path>
                        <path d="M16.987,34.993 C16.144,34.993 15.313,34.93 14.493,34.806 C13.609,34.679 13.036,34.019 13.039,33.126 C13.055,32.11 12.573,31.313 11.714,30.911 L11.712,30.911 L11.582,30.858 C10.731,30.512 9.759,30.761 9.047,31.507 C9.01,31.561 8.901,31.648 8.826,31.703 C8.479,32.022 7.848,32.131 7.331,31.915 L7.06,31.761 L7.058,31.763 C5.606,30.721 4.327,29.445 3.254,27.969 C2.83,27.371 2.91,26.555 3.434,26.061 C4.352,25.181 4.561,24.363 4.126,23.334 C3.7,22.335 2.972,21.911 1.716,21.95 C1.013,21.983 0.366,21.441 0.25,20.727 C-0.043,18.926 -0.047,17.118 0.238,15.355 C0.352,14.636 0.984,14.095 1.717,14.131 C3.015,14.174 3.768,13.731 4.183,12.672 C4.578,11.662 4.35,10.862 3.421,9.998 C2.877,9.502 2.795,8.672 3.237,8.073 C4.285,6.609 5.563,5.323 7.029,4.261 C7.625,3.817 8.461,3.901 8.964,4.466 C9.842,5.424 10.665,5.65 11.708,5.21 C12.742,4.778 13.156,4.04 13.097,2.739 C13.06,2.005 13.582,1.356 14.313,1.234 C16.078,0.943 17.894,0.943 19.708,1.233 C20.43,1.336 20.964,1.979 20.936,2.726 C20.876,4.147 21.354,4.92 22.533,5.317 C23.126,5.515 24.035,5.643 25.071,4.483 C25.574,3.921 26.409,3.834 27.012,4.275 C28.465,5.321 29.748,6.611 30.82,8.106 C31.248,8.697 31.163,9.522 30.622,10.023 C29.644,10.921 29.413,11.747 29.846,12.787 C30.274,13.819 30.989,14.234 32.282,14.185 C32.92,14.158 33.514,14.562 33.72,15.173 C34.101,16.301 34.093,19.723 33.706,20.984 C33.524,21.607 32.928,22.027 32.271,22.012 C30.947,21.971 30.218,22.412 29.8,23.467 C29.406,24.466 29.628,25.265 30.542,26.14 C31.063,26.64 31.139,27.457 30.719,28.042 L30.714,28.048 C29.652,29.503 28.367,30.773 26.893,31.822 C26.316,32.236 25.504,32.166 25.007,31.657 C24.04,30.659 23.163,30.47 22.079,31.018 C21.207,31.455 20.847,32.141 20.87,33.312 C20.87,34.048 20.363,34.654 19.664,34.773 L19.442,34.817 C18.612,34.935 17.794,34.993 16.987,34.993 Z M15.035,32.863 C16.305,33.031 17.59,33.037 18.877,32.878 C18.961,31.187 19.735,29.956 21.181,29.231 C22.41,28.612 24.232,28.259 26.093,29.928 C27.119,29.149 28.034,28.247 28.822,27.237 C27.304,25.552 27.49,23.874 27.94,22.732 C28.418,21.525 29.486,20.115 31.876,20.017 C32.038,19.004 32.034,17.1 31.903,16.187 C29.563,16.116 28.49,14.738 27.999,13.555 C27.506,12.368 27.293,10.627 28.919,8.897 C28.129,7.864 27.224,6.952 26.217,6.176 C24.641,7.686 23.017,7.587 21.899,7.214 C20.563,6.764 19.011,5.693 18.936,3.142 C17.64,2.975 16.356,2.975 15.103,3.14 C15.035,5.486 13.665,6.562 12.485,7.055 C11.299,7.555 9.558,7.781 7.833,6.162 C6.814,6.951 5.91,7.862 5.132,8.882 C6.682,10.56 6.5,12.249 6.049,13.403 C5.575,14.609 4.517,16.018 2.151,16.128 C1.987,17.389 1.991,18.673 2.162,19.959 C4.432,20.076 5.484,21.412 5.971,22.555 C6.466,23.727 6.698,25.445 5.153,27.164 C5.945,28.189 6.858,29.101 7.874,29.876 C9.144,28.748 10.738,28.418 12.2,28.952 L12.395,29.025 C13.992,29.694 14.966,31.117 15.035,32.863 Z" id="Shape" fill="#3B3D3E" fill-rule="nonzero"></path>
                        <path d="M17,22 C14.794,22 13,20.206 13,18 C13,15.794 14.794,14 17,14 C19.206,14 21,15.794 21,18 C21,20.206 19.206,22 17,22 Z M17,16 C15.897,16 15,16.897 15,18 C15,19.103 15.897,20 17,20 C18.103,20 19,19.103 19,18 C19,16.897 18.103,16 17,16 Z" id="Shape" fill="#3B3D3E" fill-rule="nonzero"></path>
                        <path d="M21.5,12.5 C21.395,12.5 21.289,12.467 21.199,12.399 C20.907,12.179 20.594,11.98 20.265,11.807 C20.022,11.678 19.928,11.375 20.057,11.131 C20.187,10.886 20.489,10.795 20.734,10.923 C21.108,11.121 21.466,11.349 21.8,11.6 C22.021,11.766 22.065,12.079 21.899,12.3 C21.801,12.431 21.651,12.5 21.5,12.5 Z" id="Path" fill="#3B3D3E" fill-rule="nonzero"></path>
                        <path d="M22,24.09 C21.863,24.09 21.727,24.034 21.627,23.923 C21.443,23.717 21.461,23.401 21.667,23.217 C23.149,21.89 24,19.988 24,18 C24,16.471 23.517,15.019 22.602,13.8 C22.436,13.579 22.48,13.266 22.702,13.1 C22.923,12.935 23.236,12.978 23.401,13.2 C24.448,14.593 25.001,16.253 25.001,18 C25.001,20.272 24.029,22.446 22.334,23.962 C22.238,24.048 22.119,24.09 22,24.09 Z" id="Path" fill="#3B3D3E" fill-rule="nonzero"></path>
                        <path d="M17,26 C13.21,26 9.912,23.308 9.16,19.6 C9.105,19.329 9.28,19.065 9.551,19.01 C9.824,18.957 10.086,19.13 10.141,19.401 C10.799,22.645 13.684,25 17,25 C17.974,25 18.915,24.804 19.8,24.418 C20.053,24.307 20.348,24.422 20.458,24.676 C20.568,24.929 20.453,25.224 20.2,25.334 C19.188,25.776 18.112,26 17,26 Z" id="Path" fill="#3B3D3E" fill-rule="nonzero"></path>
                        <path d="M10.365,15 C10.286,15 10.206,14.981 10.132,14.942 C9.888,14.813 9.794,14.51 9.923,14.266 C11.314,11.635 14.026,10 17,10 C17.538,10 18.076,10.054 18.6,10.16 C18.871,10.215 19.045,10.479 18.991,10.749 C18.936,11.02 18.673,11.195 18.401,11.14 C17.942,11.047 17.471,11 17,11 C14.398,11 12.025,12.431 10.808,14.733 C10.718,14.903 10.544,15 10.365,15 Z" id="Path" fill="#3B3D3E" fill-rule="nonzero"></path>
                        <rect id="Rectangle" fill="#3B3D3E" fill-rule="nonzero" transform="translate(16.747835, 12.749678) rotate(-83.667401) translate(-16.747835, -12.749678) " x="14.4838318" y="12.2496767" width="4.52800747" height="1.00000165"></rect>
                        <rect id="Rectangle" fill="#3B3D3E" fill-rule="nonzero" transform="translate(22.203966, 18.718671) rotate(-73.123489) translate(-22.203966, -18.718671) " x="21.7039828" y="16.4547482" width="1" height="4.52784537"></rect>
                        <rect id="Rectangle" fill="#3B3D3E" fill-rule="nonzero" transform="translate(14.000109, 13.752102) rotate(-12.526943) translate(-14.000109, -13.752102) " x="13.5001058" y="11.4470885" width="1.00000602" height="4.61002778"></rect>
                        <rect id="Rectangle" fill="#3B3D3E" fill-rule="nonzero" transform="translate(13.467863, 21.890566) rotate(-38.658913) translate(-13.467863, -21.890566) " x="11.2038012" y="21.3905524" width="4.52812429" height="1.00002745"></rect>
                        <rect id="Rectangle" fill="#3B3D3E" fill-rule="nonzero" transform="translate(16.118860, 23.125817) rotate(-57.520898) translate(-16.118860, -23.125817) " x="13.8138251" y="22.6258097" width="4.61006906" height="1.00001498"></rect>
                        <path d="M49.5,62.5 L40.5,62.5" id="Path" stroke="#3B3D3E" stroke-linecap="round"></path>
                        <path d="M38.5,62.5 L36.5,62.5" id="Path" stroke="#3B3D3E" stroke-linecap="round"></path>
                    </g>
                </g>
            </g>
        </g>
    </g>
</svg>