<svg width="1092" height="433" xmlns="http://www.w3.org/2000/svg" xmlns:xlink="http://www.w3.org/1999/xlink">
  <defs>
    <path d="M.473 402.2c17.912-1.49 44.229-17.67 56.742-40.47 12.514-22.8 22.555-50.219 45.583-60.217 21.55-9.357 46.574 26.513 69.218 20.76 46.327-11.776 51.68-185.907 110.298-185.907 55.656 0 152.541 139.064 229.722 88.118 74.08-48.896 117.762-199.097 178.85-220.302C808.684-36.713 833.288 269.98 917.941 269.98c23.95 0 41.364-73.366 59.56-82.503 58.58-29.417 30.995 159.565 114.294 214.724H.473" id="a"/>
    <linearGradient x1="0%" y1="50%" y2="50%" id="b">
      <stop stop-color="#956AA0" offset="0%"/>
      <stop stop-color="#404C8E" offset="100%"/>
    </linearGradient>
    <path d="M193.577 99.807l15.017-3.514-7.431-31.617-15.014 3.51a88.684 88.684 0 0 0-21.594-29.976l8.125-13.088L145.013 8l-8.125 13.089a89.03 89.03 0 0 0-28.481-5.983 84.946 84.946 0 0 0-7.742 0l-.31.016L96.855.124l-31.69 7.412 3.518 15a88.203 88.203 0 0 0-8.86 4.479 88.02 88.02 0 0 0-21.206 17.064L25.498 35.97 8.353 63.556l13.1 8.107a88.54 88.54 0 0 0-5.98 36.443L.46 111.62l7.43 31.62 15.015-3.515a88.46 88.46 0 0 0 21.591 30l-8.126 13.067 27.65 17.121 8.146-13.087a88.435 88.435 0 0 0 36.529 5.964l3.522 15 31.674-7.413-3.52-14.979a91.229 91.229 0 0 0 8.879-4.478 88.825 88.825 0 0 0 21.188-17.064l13.12 8.107 17.14-27.603-13.097-8.108a88.512 88.512 0 0 0 5.976-36.445" id="d"/>
    <linearGradient x1="0%" y1="50%" y2="50%" id="e">
      <stop stop-color="#61C4E4" offset="0%"/>
      <stop stop-color="#4B609D" offset="100%"/>
    </linearGradient>
    <path d="M85.82 100.122a40.628 40.628 0 0 1-11.187 4.428c-22.002 5.16-44.028-8.493-49.187-30.495C21.233 56.07 29.57 38.1 44.763 29.292a40.732 40.732 0 0 1 11.19-4.428c2.32-.54 4.63-.878 6.939-1.01a38.046 38.046 0 0 1 4.813-.012c17.61 1.036 33.2 13.464 37.435 31.532 4.21 17.971-4.124 35.943-19.32 44.748zm34.84-38.001l9.334-2.19-4.62-19.704-9.333 2.189a55.244 55.244 0 0 0-13.426-18.681l5.052-8.157-17.202-10.67-5.054 8.156a55.314 55.314 0 0 0-17.706-3.73 52.757 52.757 0 0 0-4.813 0l-.193.013L60.522 0 40.817 4.619l2.192 9.348a54.379 54.379 0 0 0-5.51 2.79A54.721 54.721 0 0 0 24.312 27.39l-8.157-5.052L5.497 39.53l8.146 5.052a55.3 55.3 0 0 0-3.718 22.714l-9.333 2.19L5.209 89.19l9.336-2.192a55.123 55.123 0 0 0 13.424 18.695l-5.052 8.147 17.19 10.669 5.067-8.158a54.935 54.935 0 0 0 22.711 3.72l2.19 9.343 19.694-4.615-2.192-9.337a56.806 56.806 0 0 0 5.52-2.79 55.277 55.277 0 0 0 13.176-10.635l8.154 5.052 10.66-17.202-8.145-5.055a55.311 55.311 0 0 0 3.719-22.711z" id="g"/>
    <linearGradient x1="0%" y1="50.001%" y2="50.001%" id="h">
      <stop stop-color="#61C4E4" offset="0%"/>
      <stop stop-color="#4B609D" offset="100%"/>
    </linearGradient>
    <path d="M16.432 3.158L11.787.573s-.995 1.494-1.81 2.458C8.41 4.891.898 6.237.898 8.873c0 1.333 2.799 2.529 5.079 2.62a15.63 15.63 0 0 0 5.504-.76c1.347-.44 4.42-1.691 4.906-2.513.85-1.427.182-3.082.182-3.082.241-1.47-.137-1.98-.137-1.98" id="j"/>
    <linearGradient x1="0%" y1="50.01%" x2="99.997%" y2="50.01%" id="k">
      <stop stop-color="#61C4E4" offset="0%"/>
      <stop stop-color="#4B609D" offset="100%"/>
    </linearGradient>
    <path d="M36.619.592c-.544.176-.96.564-1.135 1.069-1.14 3.249-2.101 10.205-3.12 17.569-1.025 7.406-3.819 21.646-3.943 22.425C26.11 43.678 4.316 64.127.438 66.116l4.714 7.648c9.584-5.16 30.74-19.548 35.162-26.608 4.721-7.304 18.69-36.837 12.825-41.59-1.965-1.588-14.131-5.73-16.52-4.974" id="m"/>
    <linearGradient x1="0%" y1="50%" x2="99.999%" y2="50%" id="n">
      <stop stop-color="#8FCEE6" offset="0%"/>
      <stop stop-color="#8380B0" offset="100%"/>
    </linearGradient>
    <path d="M15.853 2.486L11.018.273s-.875 1.567-1.611 2.593C7.99 4.843.607 6.774.813 9.404c.104 1.326 2.988 2.301 5.268 2.21 2.285-.088 4.269-.373 5.429-1.187 1.449-1.015 4.273-2.035 4.694-2.892.737-1.488-.06-3.085-.06-3.085.124-1.485-.291-1.964-.291-1.964" id="p"/>
    <linearGradient x1="-.002%" y1="49.987%" x2="99.996%" y2="49.987%" id="q">
      <stop stop-color="#61C4E4" offset="0%"/>
      <stop stop-color="#4B609D" offset="100%"/>
    </linearGradient>
    <path d="M27.983.728c-2.446.27-9.559 2.285-9.559 2.285s-2.356 6.245-5.17 8.037c-1.933 1.232-4.804-.012-4.804-.012s-6.044 6.104-6.95 7.577C-2 24.33 3.275 30.096 6.37 35.698c1.793 3.25 17.562 23.373 27.484 54.775 8.387 12.87 35.48 6.855 50.184-10.292l-7.316-19.46 11.689 16.257c1.108-.787 3.641-2.025 4.545-2.6C70.896 17.002 49.848-1.676 27.983.728" id="s"/>
    <linearGradient x1="-.001%" y1="50%" y2="50%" id="t">
      <stop stop-color="#8FCEE6" offset="0%"/>
      <stop stop-color="#8380B0" offset="100%"/>
    </linearGradient>
    <path d="M39.551 2.275C37.297 1.138 24.533-.345 22.358.901c-.496.283-.82.751-.886 1.283-.43 3.416.094 10.421.65 17.837.555 7.455 1.134 15.166.866 20.253-.046.878-.046 1.7-.003 2.496-1.832 2.465-4.185 5.866-6.666 9.454-5.42 7.84-12.165 17.596-15.537 20.36L7 79.066c8.278-7.062 25.928-25.583 28.776-33.445 3.071-8.117 10.51-39.937 3.775-43.346" id="v"/>
    <linearGradient x1="57.56%" y1="87.393%" x2="41.347%" y2="7.279%" id="w">
      <stop stop-color="#8380B0" offset="0%"/>
      <stop stop-color="#8FCEE6" offset="100%"/>
    </linearGradient>
    <path d="M10.008 1.421C9.227.148 8.605.004 8.605.004L3.36 1.078s.221 1.787.233 3.05c.022 2.436-4.832 8.366-3.1 10.367.872 1.012 3.794.09 5.596-1.33 1.803-1.423 3.246-2.828 3.705-4.176.573-1.676 2.263-4.17 2.097-5.112-.287-1.64-1.883-2.456-1.883-2.456" id="y"/>
    <linearGradient x1="-.003%" y1="50.001%" x2="100.004%" y2="50.001%" id="z">
      <stop stop-color="#8FCEE6" offset="0%"/>
      <stop stop-color="#8380B0" offset="100%"/>
    </linearGradient>
    <path d="M16.281 2.785L11.603.197s-1.004 1.496-1.822 2.46C8.202 4.52.636 5.868.636 8.51c0 1.333 2.818 2.531 5.117 2.621a15.79 15.79 0 0 0 5.543-.761c1.355-.44 4.451-1.693 4.942-2.516.856-1.428.181-3.085.181-3.085.241-1.472-.138-1.983-.138-1.983" id="B"/>
    <linearGradient x1="0%" y1="50.01%" x2="99.995%" y2="50.01%" id="C">
      <stop stop-color="#8FCEE6" offset="0%"/>
      <stop stop-color="#8380B0" offset="100%"/>
    </linearGradient>
    <path d="M12.009.853C9.463 4.737 4.958 15.92.123 24.805c2.633 2.078 6.603 4.674 9.553 6.299 1.205.663 4.789 2.787 6.037 3.341 7.365-9.476 12.245-22.508 10.02-25.463C24.287 7.062 12.666-.144 12.009.853" id="E"/>
    <linearGradient x1=".001%" y1="49.998%" x2="99.996%" y2="49.998%" id="F">
      <stop stop-color="#8FCEE6" offset="0%"/>
      <stop stop-color="#8380B0" offset="100%"/>
    </linearGradient>
    <path d="M15.848 2.767L11.214.185s-.992 1.492-1.805 2.454C7.849 4.495.354 5.839.354 8.472c0 1.33 2.791 2.526 5.066 2.615 2.277.094 4.274-.034 5.493-.755 1.518-.9 4.408-1.693 4.892-2.513.847-1.422.18-3.074.18-3.074.24-1.47-.137-1.978-.137-1.978" id="H"/>
    <linearGradient x1="0%" y1="49.999%" x2="100.005%" y2="49.999%" id="I">
      <stop stop-color="#61C4E4" offset="0%"/>
      <stop stop-color="#4B609D" offset="100%"/>
    </linearGradient>
    <path d="M15.897 2.767L11.262.185s-.993 1.492-1.801 2.454C7.896 4.495.4 5.839.4 8.472c0 1.33 2.792 2.526 5.07 2.615a15.512 15.512 0 0 0 5.489-.755c1.342-.439 4.408-1.693 4.895-2.513.849-1.422.177-3.074.177-3.074.24-1.47-.135-1.978-.135-1.978" id="K"/>
    <linearGradient x1="0%" y1="49.991%" x2="100.001%" y2="49.991%" id="L">
      <stop stop-color="#61C4E4" offset="0%"/>
      <stop stop-color="#4B609D" offset="100%"/>
    </linearGradient>
    <path d="M2.78 3.803S-.773 20.888.933 22.373c3.86 3.36 18.346.26 29.367-1.098 11.02-1.358 31.321.881 31.852-1.373 1.434-6.09-1.267-19.54-1.267-19.54L2.78 3.802" id="N"/>
    <linearGradient x1="0%" y1="50.002%" y2="50.002%" id="O">
      <stop stop-color="#8FCEE6" offset="0%"/>
      <stop stop-color="#8380B0" offset="100%"/>
    </linearGradient>
    <path d="M55.631 15.26C53.044 8.13 50.063 4.351 42.897 2.627 40.512 2.052 33.425.1 33.425.1s-5.021 4.369-8.342 4.61c-2.28.164-4.21-2.292-4.21-2.292s-8.197 2.496-9.686 3.362C5.41 9.14 5.311 14.814 4.974 19.518 1.6 66.434-.51 73.301.955 75.895c3.596 6.36 63.241 2.157 62.133-5.703-3.69-26.186-6.66-52.732-7.457-54.933" id="Q"/>
    <linearGradient x1="0%" y1="50.002%" x2="100.002%" y2="50.002%" id="R">
      <stop stop-color="#61C4E4" offset="0%"/>
      <stop stop-color="#4B609D" offset="100%"/>
    </linearGradient>
    <path d="M28.558.7c-4.262-1.827-16.54 1.476-26.633 1.763C.312 6.89-.189 14.837 1.462 20.815c11.88 1.609 22.566.653 25.924-.891C36.02 15.95 34.072 3.06 28.558.7" id="T"/>
    <linearGradient x1="-.002%" y1="50.001%" x2="99.998%" y2="50.001%" id="U">
      <stop stop-color="#8FCEE6" offset="0%"/>
      <stop stop-color="#8380B0" offset="100%"/>
    </linearGradient>
    <path d="M4.352.494C3.752.13 3.179.025 2.668.063 1.398.155.507 1.12.507 1.12c3.016.995 5.49 3.775 5.49 3.775.665-1.455.613-3.03-1.645-4.402" id="W"/>
    <linearGradient x1="0%" y1="49.981%" x2="99.986%" y2="49.981%" id="X">
      <stop stop-color="#61C4E4" offset="0%"/>
      <stop stop-color="#4B609D" offset="100%"/>
    </linearGradient>
    <path d="M37.166.5C16.229 1.924.112 20.093.366 40.97c.177 14.74 7.81 27.55 20.577 34.34 4.549 2.414 7.286 7.228 7.286 12.357v.093h25.138v-.093c0-5.18 2.654-10.036 7.097-12.731 11.476-6.963 19.9-19.8 19.9-34.497C80.365 17.397 60.66-1.098 37.167.5" id="Z"/>
    <linearGradient x1="0%" y1="50.001%" y2="50.001%" id="aa">
      <stop stop-color="#8FCEE6" offset="0%"/>
      <stop stop-color="#8380B0" offset="100%"/>
    </linearGradient>
    <path d="M487.236 331.457c-4.841-1.335-9.78-2.549-14.71-4.033-4.928-1.478-9.918-2.974-14.96-4.488-5.025-1.572-10.052-3.32-15.152-4.996-5.114-1.627-10.185-3.543-15.315-5.426-10.302-3.634-20.552-7.932-30.952-12.152l-15.508-6.823-3.895-1.727-3.854-1.846a9962.505 9962.505 0 0 0-7.73-3.702 7809.836 7809.836 0 0 0-7.757-3.714c-2.57-1.28-5.108-2.638-7.67-3.956-5.103-2.683-10.274-5.259-15.347-8.043-5.048-2.831-10.104-5.672-15.167-8.512l-3.796-2.13-3.729-2.254-7.452-4.51c-10.025-5.862-19.649-12.391-29.364-18.649-4.808-3.208-9.498-6.587-14.232-9.854-2.358-1.645-4.713-3.286-7.062-4.928-2.363-1.616-4.611-3.403-6.915-5.092l-13.67-10.206c-2.291-1.66-4.472-3.464-6.68-5.214l-6.584-5.256c-2.19-1.743-4.369-3.484-6.543-5.218-2.175-1.73-4.352-3.441-6.434-5.264-4.21-3.58-8.387-7.137-12.53-10.665-2.07-1.76-4.13-3.516-6.183-5.262l-5.98-5.399c-3.957-3.59-7.878-7.144-11.76-10.662-3.92-3.46-7.62-7.095-11.304-10.65-3.685-3.551-7.321-7.059-10.91-10.521-14.161-14.056-27.295-27.592-38.97-40.523l-8.647-9.406-8.002-9.227c-5.189-6.011-10.168-11.652-14.74-17.054L65.169 38.75a33511.84 33511.84 0 0 1-8.185-9.99c-.82-1.059-1.62-2.092-2.4-3.095L35.028.399.058 28.309l21.558 25.014 2.644 3.06 2.866 3.144 6.135 6.735L47.068 81.41c5.016 5.332 10.474 10.9 16.158 16.821l8.764 9.084 9.457 9.258c12.763 12.715 27.087 26.003 42.487 39.75l11.856 10.286c4 3.47 8.019 7.012 12.268 10.39l12.74 10.378c2.148 1.742 4.306 3.49 6.472 5.25 2.219 1.694 4.447 3.4 6.686 5.109 4.474 3.417 8.987 6.863 13.53 10.336 2.25 1.762 4.597 3.418 6.944 5.093l7.048 5.04c2.357 1.683 4.72 3.375 7.092 5.07 2.376 1.685 4.722 3.423 7.182 5.018 4.874 3.252 9.772 6.521 14.689 9.805 2.472 1.618 4.883 3.33 7.418 4.877l7.571 4.708c5.07 3.12 10.088 6.342 15.228 9.396 10.381 5.945 20.655 12.137 31.323 17.648l7.932 4.24 3.962 2.12 4.032 1.989a31082.75 31082.75 0 0 0 16.092 7.943c5.378 2.589 10.85 4.969 16.244 7.447 2.707 1.217 5.391 2.474 8.107 3.652 2.733 1.137 5.461 2.268 8.183 3.403 2.723 1.129 5.438 2.257 8.148 3.383l4.061 1.684 4.099 1.567 16.292 6.164c10.915 3.775 21.644 7.615 32.4 10.785 5.355 1.647 10.646 3.332 15.971 4.724 5.312 1.44 10.543 2.952 15.76 4.286 5.231 1.272 10.406 2.531 15.518 3.776 5.113 1.246 10.22 2.22 15.222 3.32 20.07 4.13 39.244 6.758 56.888 9.424 60.443 9.128 110.427 7.911 110.427 7.911s-87.753-6.945-164.083-31.088" id="ac"/>
    <linearGradient x1="0%" y1="50%" y2="50%" id="ad">
      <stop stop-color="#8380B0" offset="0%"/>
      <stop stop-color="#8FCEE6" offset="100%"/>
    </linearGradient>
    <path id="af" d="M133.525 70.886L7.712.363.259 7.828l125.813 70.523 7.453-7.465"/>
    <linearGradient x1="0%" y1="50%" y2="50%" id="ag">
      <stop stop-color="#8FCEE6" offset="0%"/>
      <stop stop-color="#8380B0" offset="100%"/>
    </linearGradient>
    <path d="M692.548 415.025c-5.546-.155-13.595-.55-23.856-1.159-10.265-.685-22.718-1.573-36.93-3.195-14.223-1.502-30.196-3.753-47.494-6.807-17.308-2.965-35.88-7.113-55.3-12.192-4.84-1.335-9.779-2.549-14.709-4.033-4.929-1.478-9.919-2.974-14.96-4.488-5.025-1.572-10.053-3.319-15.153-4.996-5.114-1.627-10.184-3.543-15.314-5.425-10.302-3.634-20.552-7.933-30.952-12.152-5.14-2.26-10.311-4.538-15.509-6.824l-3.894-1.727-3.854-1.845a9958.846 9958.846 0 0 0-7.73-3.703 7807.607 7807.607 0 0 0-7.758-3.713c-2.57-1.28-5.107-2.639-7.67-3.957-5.103-2.683-10.273-5.259-15.347-8.043-5.048-2.83-10.103-5.672-15.166-8.512l-3.796-2.13-3.73-2.254-7.452-4.51c-10.025-5.862-19.648-12.391-29.363-18.648-4.808-3.209-9.499-6.588-14.232-9.855-2.358-1.645-4.713-3.286-7.062-4.928-2.365-1.616-4.613-3.403-6.916-5.091l-13.67-10.207c-2.29-1.659-4.471-3.464-6.679-5.214l-6.585-5.255c-2.189-1.744-4.368-3.485-6.543-5.219-2.174-1.73-4.352-3.441-6.434-5.264-4.209-3.58-8.387-7.137-12.529-10.665-2.07-1.76-4.131-3.516-6.183-5.261-2.002-1.809-3.996-3.61-5.98-5.4-3.957-3.59-7.879-7.144-11.76-10.661-3.92-3.461-7.62-7.095-11.305-10.65l-10.91-10.522c-14.16-14.055-27.294-27.591-38.969-40.523l-8.648-9.406-8.002-9.227c-5.188-6.011-10.168-11.652-14.739-17.054l-12.564-15.344a33464.531 33464.531 0 0 1-8.186-9.99c-.82-1.059-1.62-2.092-2.4-3.095l-7.355-9.505 37.112-5.49L.26.363 40.78 138.96l13.84-35.548c2.566 2.977 5.476 6.354 8.73 10.127.858.995 1.74 2.013 2.643 3.06l2.867 3.144 6.134 6.735 13.808 15.149c5.015 5.331 10.473 10.899 16.158 16.82l8.764 9.084 9.456 9.259c12.763 12.714 27.086 26.003 42.487 39.75l11.857 10.285c4 3.47 8.018 7.013 12.267 10.39l12.74 10.378c2.148 1.741 4.307 3.491 6.472 5.25 2.22 1.693 4.448 3.4 6.686 5.11 4.475 3.417 8.988 6.863 13.53 10.336 2.25 1.761 4.597 3.417 6.945 5.092 2.341 1.674 4.692 3.357 7.048 5.04l7.091 5.07c2.376 1.685 4.722 3.423 7.183 5.018 4.874 3.252 9.771 6.522 14.688 9.805 2.473 1.618 4.883 3.33 7.418 4.878l7.57 4.707c5.07 3.12 10.09 6.343 15.23 9.396 10.38 5.945 20.654 12.137 31.323 17.648l7.932 4.24 3.962 2.12 4.031 1.99c5.372 2.652 10.737 5.301 16.093 7.942 5.377 2.59 10.85 4.97 16.244 7.448 2.707 1.216 5.39 2.474 8.106 3.652 2.734 1.136 5.461 2.268 8.183 3.402 2.723 1.129 5.439 2.258 8.148 3.384l4.062 1.684 4.098 1.566c5.458 2.065 10.893 4.12 16.293 6.165 10.914 3.774 21.644 7.614 32.4 10.784 5.354 1.647 10.645 3.333 15.97 4.724 5.312 1.44 10.544 2.952 15.76 4.287 5.232 1.272 10.407 2.53 15.519 3.776 5.112 1.245 10.22 2.22 15.222 3.319 20.069 4.13 39.164 7.34 56.887 9.424 17.708 2.168 33.985 3.588 48.43 4.346 14.436.878 27.036 1.108 37.399 1.253 10.372.064 18.54.032 24.053-.105l8.48-.16.038-4.87s-2.948-.098-8.476-.288" id="ai"/>
    <linearGradient x1="0%" y1="50%" y2="50%" id="aj">
      <stop stop-color="#8FCEE6" offset="0%"/>
      <stop stop-color="#8380B0" offset="100%"/>
    </linearGradient>
    <path d="M2.865 15.693C21.49 44.665 37.434 68.812 37.434 68.812c.92-2.008 3.514-3.505 6.186-2.925 0 0-11.527-27.63-23.155-55.626-7.668-18.46-25.198-6.382-17.6 5.432" id="al"/>
    <linearGradient x1="-.002%" y1="49.997%" x2="99.999%" y2="49.997%" id="am">
      <stop stop-color="#61C4E4" offset="0%"/>
      <stop stop-color="#4B609D" offset="100%"/>
    </linearGradient>
    <path d="M2.772 15.252A5811.814 5811.814 0 0 0 37.34 68.371c.921-2.008 3.516-3.505 6.188-2.925 0 0-11.528-27.63-23.156-55.626-7.669-18.46-25.197-6.382-17.6 5.432" id="ao"/>
    <linearGradient x1="0%" y1="49.997%" x2="99.999%" y2="49.997%" id="ap">
      <stop stop-color="#61C4E4" offset="0%"/>
      <stop stop-color="#4B609D" offset="100%"/>
    </linearGradient>
    <path d="M84.69.47C74.743 2.35 24.328 32.826 4.466 48.116c-8.45 6.507-3.68 14.48 6.344 13.308 25.965-3.029 67.004-10.11 82.594-24.171C118.186 14.9 89.999-.532 84.69.469" id="ar"/>
    <linearGradient x1="0%" y1="49.998%" y2="49.998%" id="as">
      <stop stop-color="#61C4E4" offset="0%"/>
      <stop stop-color="#4B609D" offset="100%"/>
    </linearGradient>
  </defs>
  <g fill="none" fill-rule="evenodd">
    <g transform="matrix(-1 0 0 1 1092 29)">
      <mask id="c" fill="#fff">
        <use xlink:href="#a"/>
      </mask>
      <path d="M.473 402.2c17.912-1.49 44.229-17.67 56.742-40.47 12.514-22.8 22.555-50.219 45.583-60.217 21.55-9.357 46.574 26.513 69.218 20.76 46.327-11.776 51.68-185.907 110.298-185.907 55.656 0 152.541 139.064 229.722 88.118 74.08-48.896 117.762-199.097 178.85-220.302C808.684-36.713 833.288 269.98 917.941 269.98c23.95 0 41.364-73.366 59.56-82.503 58.58-29.417 30.995 159.565 114.294 214.724H.473" fill="url(#b)" mask="url(#c)"/>
    </g>
    <g transform="matrix(-1 0 0 1 485 224)">
      <mask id="f" fill="#fff">
        <use xlink:href="#d"/>
      </mask>
      <path d="M193.577 99.807l15.017-3.514-7.431-31.617-15.014 3.51a88.684 88.684 0 0 0-21.594-29.976l8.125-13.088L145.013 8l-8.125 13.089a89.03 89.03 0 0 0-28.481-5.983 84.946 84.946 0 0 0-7.742 0l-.31.016L96.855.124l-31.69 7.412 3.518 15a88.203 88.203 0 0 0-8.86 4.479 88.02 88.02 0 0 0-21.206 17.064L25.498 35.97 8.353 63.556l13.1 8.107a88.54 88.54 0 0 0-5.98 36.443L.46 111.62l7.43 31.62 15.015-3.515a88.46 88.46 0 0 0 21.591 30l-8.126 13.067 27.65 17.121 8.146-13.087a88.435 88.435 0 0 0 36.529 5.964l3.522 15 31.674-7.413-3.52-14.979a91.229 91.229 0 0 0 8.879-4.478 88.825 88.825 0 0 0 21.188-17.064l13.12 8.107 17.14-27.603-13.097-8.108a88.512 88.512 0 0 0 5.976-36.445" fill="url(#e)" mask="url(#f)"/>
    </g>
    <path fill="#EAEAE4" d="M482.834 431.018h3.569l34.494-172.193h-3.567l-34.496 172.193M528.828 431.018h3.568l34.495-172.193h-3.569l-34.494 172.193"/>
    <path fill="#EAEAE4" d="M533.14 414.184h-43.975v-2.912h43.976zM538.67 386.305h-43.975v-2.915h43.976zM544.203 358.423h-43.978v-2.915h43.978zM549.733 330.54h-43.975v-2.913h43.975zM555.266 302.66h-43.977v-2.915h43.977zM560.797 274.778h-43.975v-2.912h43.975zM533.085 258.825h-39.287V246h39.287zM607.625 258.825h-74.54V246h74.54z"/>
    <path fill="#FFFFFE" d="M630 431.018h-3.57l-34.496-172.193h3.57L630 431.018M584.006 431.018h-3.568l-34.495-172.193h3.569l34.494 172.193"/>
    <path fill="#FFFFFE" d="M623.669 414.184h-43.976v-2.912h43.976zM618.14 386.305h-43.978v-2.915h43.977zM612.608 358.423H568.63v-2.915h43.977zM607.076 330.54h-43.975v-2.913h43.975zM601.545 302.66h-43.977v-2.915h43.977zM596.012 274.778h-43.975v-2.912h43.975z"/>
    <g transform="matrix(-1 0 0 1 272 256)">
      <mask id="i" fill="#fff">
        <use xlink:href="#g"/>
      </mask>
      <path d="M85.82 100.122a40.628 40.628 0 0 1-11.187 4.428c-22.002 5.16-44.028-8.493-49.187-30.495C21.233 56.07 29.57 38.1 44.763 29.292a40.732 40.732 0 0 1 11.19-4.428c2.32-.54 4.63-.878 6.939-1.01a38.046 38.046 0 0 1 4.813-.012c17.61 1.036 33.2 13.464 37.435 31.532 4.21 17.971-4.124 35.943-19.32 44.748zm34.84-38.001l9.334-2.19-4.62-19.704-9.333 2.189a55.244 55.244 0 0 0-13.426-18.681l5.052-8.157-17.202-10.67-5.054 8.156a55.314 55.314 0 0 0-17.706-3.73 52.757 52.757 0 0 0-4.813 0l-.193.013L60.522 0 40.817 4.619l2.192 9.348a54.379 54.379 0 0 0-5.51 2.79A54.721 54.721 0 0 0 24.312 27.39l-8.157-5.052L5.497 39.53l8.146 5.052a55.3 55.3 0 0 0-3.718 22.714l-9.333 2.19L5.209 89.19l9.336-2.192a55.123 55.123 0 0 0 13.424 18.695l-5.052 8.147 17.19 10.669 5.067-8.158a54.935 54.935 0 0 0 22.711 3.72l2.19 9.343 19.694-4.615-2.192-9.337a56.806 56.806 0 0 0 5.52-2.79 55.277 55.277 0 0 0 13.176-10.635l8.154 5.052 10.66-17.202-8.145-5.055a55.311 55.311 0 0 0 3.719-22.711z" fill="url(#h)" mask="url(#i)"/>
    </g>
    <g>
      <g transform="matrix(-1 0 0 1 591.614 235.208)">
        <mask id="l" fill="#fff">
          <use xlink:href="#j"/>
        </mask>
        <path d="M16.432 3.158L11.787.573s-.995 1.494-1.81 2.458C8.41 4.891.898 6.237.898 8.873c0 1.333 2.799 2.529 5.079 2.62a15.63 15.63 0 0 0 5.504-.76c1.347-.44 4.42-1.691 4.906-2.513.85-1.427.182-3.082.182-3.082.241-1.47-.137-1.98-.137-1.98" fill="url(#k)" mask="url(#l)"/>
      </g>
      <path d="M581.169 235.631s-.714 1.121.467 2.608c0 0-.942 1.62-2.698 2.591-.995.549-3.894-.483-3.894-.483-.24-1.471-.113-3.598-.113-3.598l6.238-1.118" fill="#F5C7B5"/>
      <path d="M592.947 88.236c.445 3.206 11.886 45.63 8.598 85.577-2.83 34.388-20.434 62.85-20.434 62.85-.061.247-4.579 2.705-6.851.197 0-6.006 8.146-62.219 7.965-62.848-5.505-19.124-18.242-52.263-20.422-53.984v-29.24c11.19.735 27.432-.923 31.144-2.552" fill="#3F4B8E"/>
      <path d="M669.089 113.721c.646-.097 1.324-.388 1.337.495.058.564-2.311 1.33-2.862 1.205-1.232-.697-.818-1.415-2.068-1.901 1.146.265 2.413.296 3.593.201" fill="#F5C7B5"/>
      <path d="M664.558 113.129a29.667 29.667 0 0 1 3.76 1.812c1.463.812 4.525 2.994 4.74 3.146.596.48 2.249 1.482 2.591 1.978.22.318.455 1.427.303 1.877-.197.598-.894.59-.894.59-.103.81-2.054.17-2.034.374.077.832-1.037 1.192-3.393-.571-.142-.105-6.786-3.291-8.825-4.485.63-1.317 3.68-4.743 3.752-4.721" fill="#F5C7B5"/>
      <g transform="matrix(-1 0 0 1 666.082 45.848)">
        <mask id="o" fill="#fff">
          <use xlink:href="#m"/>
        </mask>
        <path d="M36.619.592c-.544.176-.96.564-1.135 1.069-1.14 3.249-2.101 10.205-3.12 17.569-1.025 7.406-3.819 21.646-3.943 22.425C26.11 43.678 4.316 64.127.438 66.116l4.714 7.648c9.584-5.16 30.74-19.548 35.162-26.608 4.721-7.304 18.69-36.837 12.825-41.59-1.965-1.588-14.131-5.73-16.52-4.974" fill="url(#n)" mask="url(#o)"/>
      </g>
      <g transform="matrix(-1 0 0 1 555.869 236.208)">
        <mask id="r" fill="#fff">
          <use xlink:href="#p"/>
        </mask>
        <path d="M15.853 2.486L11.018.273s-.875 1.567-1.611 2.593C7.99 4.843.607 6.774.813 9.404c.104 1.326 2.988 2.301 5.268 2.21 2.285-.088 4.269-.373 5.429-1.187 1.449-1.015 4.273-2.035 4.694-2.892.737-1.488-.06-3.085-.06-3.085.124-1.485-.291-1.964-.291-1.964" fill="url(#q)" mask="url(#r)"/>
      </g>
      <path d="M545.843 236.281s-.443 1.22.62 2.793c0 0-1.066 1.543-2.895 2.372-1.036.467-3.842-.789-3.842-.789-.125-1.485-.054-3.706-.054-3.706l6.17-.67" fill="#F5C7B5"/>
      <path d="M545.443 84.188c11.1 1.61 23.537 7.578 27.363 6.246.194 3.239 3.604 45.739-1.247 85.616-2.535 20.835-25.498 49.91-25.498 61.41-.081.242-4.776 2.338-6.845-.338 0-28.308 13.12-62.724 13.12-62.724-2.395-24.975-20.793-63.72-6.893-90.21" fill="#3F4B8E"/>
      <path d="M620.096 16.89c.414.875 5.39 8.658 7.584 9.445-.319.554-4.893 5.77-5.304 9.677-2.17 2.672-10.42-1.755-9.974-8.025 1.719-.927 6.617-8.136 7.694-11.097" fill="#F5C7B5"/>
      <path d="M622.545 15.463c1.87-4.123 6.167-6.313 10.327-4.422 3.87 1.76 7.018 4.578 5.942 8.556-.385 1.424-7.076 12.541-14.09 10.986-2.964-.657-5.535-7.728-4.124-10.838l1.945-4.282" fill="#F5C7B5"/>
      <g transform="matrix(-1 0 0 1 630.826 24.974)">
        <mask id="u" fill="#fff">
          <use xlink:href="#s"/>
        </mask>
        <path d="M27.983.728c-2.446.27-9.559 2.285-9.559 2.285s-2.356 6.245-5.17 8.037c-1.933 1.232-4.804-.012-4.804-.012s-6.044 6.104-6.95 7.577C-2 24.33 3.275 30.096 6.37 35.698c1.793 3.25 17.562 23.373 27.484 54.775 8.387 12.87 35.48 6.855 50.184-10.292l-7.316-19.46 11.689 16.257c1.108-.787 3.641-2.025 4.545-2.6C70.896 17.002 49.848-1.676 27.983.728" fill="url(#t)" mask="url(#u)"/>
      </g>
      <path d="M612.402 27.987s2.356 6.245 5.171 8.037c1.932 1.232 4.803-.012 4.803-.012s5.654 5.708 6.834 7.41c-3.617 5.69-13.674 8.289-13.674 8.289s-6.64-17.62-12.693-26.01c0 0 2.316.084 4.805.839l4.754 1.447M627.357.551c10.866-3.36 21.499 9.406 18.014 17.743-.767 1.842-4.518 5.44-19.812-6.082-3.41 1.982-7.23 8.127-7.23 8.127-2.97-6.828.716-17.219 9.028-19.788" fill="#433975"/>
      <path d="M622.703 13.5c.43.124 1.182.514 1.677 1.095-.794 1.391-2.394 3.522-3.182 4.576-.975-.598-1.788-2.605-1.477-3.674.329-1.13 1.85-2.329 2.982-1.998M630.78 111.204c-.063.567-2.542.814-3.052.577-1.058-.94-.502-1.558-1.62-2.296 1.064.501 2.296.8 3.468.953.65.041 1.376-.099 1.203.766" fill="#F5C7B5"/>
      <path d="M625.272 108.903a29.917 29.917 0 0 1 3.294 2.567c1.26 1.103 3.794 3.878 3.97 4.074.483.594 1.886 1.924 2.117 2.483.148.355.145 1.488-.097 1.898-.32.541-.998.385-.998.385-.27.772-2.044-.264-2.068-.063-.099.832-1.266.948-3.198-1.273-.116-.131-5.941-4.648-7.682-6.246.894-1.154 4.595-3.859 4.662-3.825" fill="#F5C7B5"/>
      <g transform="matrix(-1 0 0 1 627.358 35.411)">
        <mask id="x" fill="#fff">
          <use xlink:href="#v"/>
        </mask>
        <path d="M39.551 2.275C37.297 1.138 24.533-.345 22.358.901c-.496.283-.82.751-.886 1.283-.43 3.416.094 10.421.65 17.837.555 7.455 1.134 15.166.866 20.253-.046.878-.046 1.7-.003 2.496-1.832 2.465-4.185 5.866-6.666 9.454-5.42 7.84-12.165 17.596-15.537 20.36L7 79.066c8.278-7.062 25.928-25.583 28.776-33.445 3.071-8.117 10.51-39.937 3.775-43.346" fill="url(#w)" mask="url(#x)"/>
      </g>
    </g>
    <g>
      <g transform="matrix(-1 0 0 1 757.374 416.008)">
        <mask id="A" fill="#fff">
          <use xlink:href="#y"/>
        </mask>
        <path d="M10.008 1.421C9.227.148 8.605.004 8.605.004L3.36 1.078s.221 1.787.233 3.05c.022 2.436-4.832 8.366-3.1 10.367.872 1.012 3.794.09 5.596-1.33 1.803-1.423 3.246-2.828 3.705-4.176.573-1.676 2.263-4.17 2.097-5.112-.287-1.64-1.883-2.456-1.883-2.456" fill="url(#z)" mask="url(#A)"/>
      </g>
      <path d="M754.31 416.974s-.456 1.263-.53 3.162c0 0-1.781.615-3.76.203-1.119-.236-2.655-2.91-2.655-2.91.78-1.276 1.356-2.099 1.356-2.099l5.589 1.644" fill="#F5C7B5"/>
      <g transform="matrix(-1 0 0 1 812.374 418.994)">
        <mask id="D" fill="#fff">
          <use xlink:href="#B"/>
        </mask>
        <path d="M16.281 2.785L11.603.197s-1.004 1.496-1.822 2.46C8.202 4.52.636 5.868.636 8.51c0 1.333 2.818 2.531 5.117 2.621a15.79 15.79 0 0 0 5.543-.761c1.355-.44 4.451-1.693 4.942-2.516.856-1.428.181-3.085.181-3.085.241-1.472-.138-1.983-.138-1.983" fill="url(#C)" mask="url(#D)"/>
      </g>
      <path d="M802.592 421.65s-.946 1.625-2.718 2.597c-1.002.547-3.92-.486-3.92-.486-.242-1.471-.346-2.469-.346-2.469l5.315-2.38s.481 1.252 1.669 2.739" fill="#F5C7B5"/>
      <path d="M786.278 337.955c.49 5.284 1.106 10.817 1.908 16.408 4.589 31.999 6.977 65.908 6.977 65.908 2.289 2.511 6.838.051 6.9-.197 0 0 12.756-147.106 11.92-153.077-3.738 1.63-20.097 3.291-31.366 2.554v3.822c-6.11 1.335-16.747 2.449-25.439 2.233-1.471 19.779 4.596 53.512 8.306 80.259 1.644 11.848-17.83 61.107-17.83 61.107 2.389 2.417 6.27 1.598 6.323 1.347 0 0 31.32-44.547 31.862-63.32.163-5.694.31-11.414.44-17.044z" fill="#FFFFFE"/>
      <path d="M814.379 270.133s-.067 7.864-.433 10.082c-1.026 6.21-7.739 9.572-12.915 9.17l-1.835-5.983-2.55 6.195c-23.838 1.432-39.868-5.492-39.868-5.492-2.693-8.589.859-22.231.859-22.231l56.742 8.26" fill="#433975"/>
      <path d="M774.558 133.232l.004-.002c-1.208-2.04-5.483-8.076-5.556-8.237-1.205-2.695-2.363-2.925-2.703-2.157-.083.186-1.484-1.327-1.971-.669 0 0-.61-.346-1.077.076-.353.321-.69 1.405-.654 1.788.058.603 1.017 2.289 1.306 3 .114.238 1.734 3.642 2.622 5.066a30.72 30.72 0 0 0 2.144 3.09c4.196 6.28 11.057 32.19 14.046 38.678.163.356.43.742.78 1.113 1.539 1.634 4.69 2.928 7.686-.489 3.19-3.637-9.778-30.257-16.627-41.257zM791.665 183.241c.739.63 8.518 5.701 10.858 5.52-.066.635-2.122 7.276-.891 11.016-.894 3.33-10.299 2.669-12.471-3.24 1.2-1.554 2.732-10.149 2.504-13.296" fill="#F5C7B5"/>
      <path d="M768.025 207.452a33.036 33.036 0 0 0-1.871 4.285c-5.559 15.466-10.384 54.321-10.384 54.321 11.676 10.988 50.754 10.578 57.571 7.935 4.7-1.82-.213-35.516 2.438-52.852 6.435-6.83 10.166-52.96 9.013-60.857-1.066-8.087-14.058-29.449-20.497-37.921l-7.33 4.863c2.647 3.34 7.046 14.057 10.58 22.666 1.619 3.944 3.153 7.679 4.389 10.413a22.251 22.251 0 0 0-.526 2.38c-.821 4.9-9.203 32.615-9.513 35.96-.05.518.162 1.035.577 1.41.025.022.051.048.078.078-.567-.222-.918-.356-.918-.356s-2.127 2.313-4.41 1.982c-2.214-.323-5.055-2.532-6.705-3.971 2.108-10.864 3.427-20.782 3.26-24.117-.294-8.153-11.204-30.64-16.81-39.678l-7.757 4.154c2.317 3.575 5.68 14.654 8.382 23.559 1.237 4.075 2.41 7.94 3.382 10.777a22.29 22.29 0 0 0-.75 2.318c-1.122 4.204-9.658 25.238-12.199 32.651z" fill="#3F4B8E"/>
      <path d="M801.632 212.13c-2.092-9.007.132-11.716.908-15.506.796-3.896.12-8.755-.914-11.851.077-.109 5.948-6.13 7.919-2.98a23.466 23.466 0 0 1 .346 13.111c-1.815 6.866-.045 12.135 1.095 14.42 1.895 3.8 1.908 8.948 1.668 11.383-1.4 14.218-9.967 20.947-12.429 19.53-2.701-1.556 4.41-15.163 1.407-28.108" fill="#433975"/>
      <path d="M801.736 171.979c4.282.02 7.594 1.985 8.244 6.059.232 1.46-1.34 14.359-8.426 15.815-2.995.617-8.268-4.79-8.25-8.208l.023-4.71c.022-4.533 3.808-8.976 8.409-8.956" fill="#F5C7B5"/>
      <path d="M780.883 188.533c-2.309-7.932.693-15.326 5.272-20.127 4.577-4.8 10.584-4.688 13.821-3.191 4.053 1.875 4.106 2.653 4.106 2.653s2.115-.402 4.362.925c4.86 2.872 4.077 14.017.036 17.327 3.064-11.89-4.42-14.071-4.42-14.071s-5.291.343-7.99 3.278c-2.455 2.67-5.083 9.995-3.877 15.708.92 4.362 4.179 7.604.247 17.679-5.646 14.48 4.4 30.464.077 32.03-3.936 1.425-16.763-6.853-17.873-23.108-.19-2.784.216-8.63 3.45-12.805 1.947-2.51 5.096-8.364 2.789-16.298" fill="#433975"/>
      <path d="M793.628 179.16c.45.05 1.265.303 1.854.793-.547 1.508-1.768 3.884-2.37 5.06-1.07-.424-2.224-2.264-2.1-3.372.135-1.172 1.437-2.614 2.616-2.48" fill="#F5C7B5"/>
    </g>
    <g>
      <path d="M378.556 208.114c3.61 5.502 10.277 25.674 15.312 34.721 6.175 11.093-3.751 11.45-6.706 8.696-7.774-7.254-25.663-30.858-22.33-35.288 1.447-1.92 13.068-9.126 13.724-8.129" fill="#F5C7B5"/>
      <g transform="matrix(-1 0 0 1 390.565 207.261)">
        <mask id="G" fill="#fff">
          <use xlink:href="#E"/>
        </mask>
        <path d="M12.009.853C9.463 4.737 4.958 15.92.123 24.805c2.633 2.078 6.603 4.674 9.553 6.299 1.205.663 4.789 2.787 6.037 3.341 7.365-9.476 12.245-22.508 10.02-25.463C24.287 7.062 12.666-.144 12.009.853" fill="url(#F)" mask="url(#G)"/>
      </g>
      <path d="M388.001 245.462c4.448-5.551 24.477-23.229 28.193-29.754 1.82 1.63 3.442 2.865 4.835 3.555-6.328 10.604-25.057 35.23-29.828 33.992-4.37-1.133-4.616-4.507-3.845-6.604.176-.476.401-.885.645-1.19" fill="#F5C7B5"/>
      <g transform="matrix(-1 0 0 1 356.394 420.19)">
        <mask id="J" fill="#fff">
          <use xlink:href="#H"/>
        </mask>
        <path d="M15.848 2.767L11.214.185s-.992 1.492-1.805 2.454C7.849 4.495.354 5.839.354 8.472c0 1.33 2.791 2.526 5.066 2.615 2.277.094 4.274-.034 5.493-.755 1.518-.9 4.408-1.693 4.892-2.513.847-1.422.18-3.074.18-3.074.24-1.47-.137-1.978-.137-1.978" fill="url(#I)" mask="url(#J)"/>
      </g>
      <path d="M346.985 422.828s-.94 1.62-2.694 2.59c-.992.546-3.882-.483-3.882-.483-.24-1.47-.343-2.467-.343-2.467l5.264-2.37s.477 1.247 1.655 2.73" fill="#F5C7B5"/>
      <path d="M358.266 268.562c.828 5.953-11.807 152.694-11.807 152.694-.06.244-4.567 2.701-6.834.198 0 0-2.367-33.826-6.912-65.744-3.924-27.553-5.516-84.6-5.516-84.6 11.163.733 27.367-.922 31.07-2.548" fill="#433975"/>
      <g transform="matrix(-1 0 0 1 380.651 420.19)">
        <mask id="M" fill="#fff">
          <use xlink:href="#K"/>
        </mask>
        <path d="M15.897 2.767L11.262.185s-.993 1.492-1.801 2.454C7.896 4.495.4 5.839.4 8.472c0 1.33 2.792 2.526 5.07 2.615a15.512 15.512 0 0 0 5.489-.755c1.342-.439 4.408-1.693 4.895-2.513.849-1.422.177-3.074.177-3.074.24-1.47-.135-1.978-.135-1.978" fill="url(#L)" mask="url(#M)"/>
      </g>
      <path d="M371.19 422.828s-.936 1.62-2.692 2.59c-.992.546-3.879-.483-3.879-.483-.244-1.47-.346-2.467-.346-2.467l5.264-2.37s.478 1.247 1.653 2.73" fill="#F5C7B5"/>
      <path d="M382.473 268.562c.83 5.953-11.804 152.694-11.804 152.694-.064.244-4.567 2.701-6.837.198 0 0-2.364-33.826-6.909-65.744-3.924-27.553-3.34-53.682-5.516-55.399V271.11c11.163.733 27.363-.922 31.066-2.548" fill="#433975"/>
      <g transform="matrix(-1 0 0 1 386.108 262.355)">
        <mask id="P" fill="#fff">
          <use xlink:href="#N"/>
        </mask>
        <path d="M2.78 3.803S-.773 20.888.933 22.373c3.86 3.36 18.346.26 29.367-1.098 11.02-1.358 31.321.881 31.852-1.373 1.434-6.09-1.267-19.54-1.267-19.54L2.78 3.802" fill="url(#O)" mask="url(#P)"/>
      </g>
      <path d="M354.674 186.51c.778.57 8.828 5.05 11.126 4.701-.018.637-1.564 7.393-.079 11.023-.638 3.379-9.98 3.403-12.552-2.318 1.07-1.63 1.96-10.295 1.505-13.406" fill="#F5C7B5"/>
      <path d="M363.121 175.304c4.233-.29 8.328.692 9.265 4.7.338 1.433-.278 14.382-7.17 16.344-2.916.83-8.516-4.166-8.75-7.57l-.319-4.686c-.307-4.51 2.43-8.477 6.974-8.788" fill="#F5C7B5"/>
      <g transform="matrix(-1 0 0 1 386.594 199.816)">
        <mask id="S" fill="#fff">
          <use xlink:href="#Q"/>
        </mask>
        <path d="M55.631 15.26C53.044 8.13 50.063 4.351 42.897 2.627 40.512 2.052 33.425.1 33.425.1s-5.021 4.369-8.342 4.61c-2.28.164-4.21-2.292-4.21-2.292s-8.197 2.496-9.686 3.362C5.41 9.14 5.311 14.814 4.974 19.518 1.6 66.434-.51 73.301.955 75.895c3.596 6.36 63.241 2.157 62.133-5.703-3.69-26.186-6.66-52.732-7.457-54.933" fill="url(#R)" mask="url(#S)"/>
      </g>
      <path d="M353.604 173.18c6.177-5.614 15.753.33 15.753.33 7.286 1.393 5.705 12.083 2.36 13.636 1.58-7.86-3.742-10.404-3.742-10.404-9.877-.144-13.313 11.66-12.65 14.718 0 0-11.025-9.825-1.721-18.28" fill="#FFFFFE"/>
      <path d="M356.317 182.305c.447.017 1.27.212 1.888.654-.432 1.54-1.465 3.992-1.973 5.207-1.084-.345-2.362-2.09-2.318-3.201.046-1.178 1.228-2.707 2.403-2.66M411.147 189.547l.005.002c1.311-1.964 4.883-8.4 4.999-8.533 1.899-2.246 1.605-3.379.773-3.352-.204.008.55-1.901-.25-2.053 0 0 .052-.694-.529-.93-.441-.177-1.558-.008-1.885.19-.514.31-1.614 1.898-2.128 2.466-.148.183-2.07 2.57-3.107 4.074-.197-.817-.56-1.7-.903-1.685-.876-.04-.63.656-.575 1.305.027 1.184-.083 2.445-.417 3.573.042-.093.086-.176.13-.25-.135.256-.264.513-.388.769-3.82 6.465-24.12 23.827-28.653 29.308a4.31 4.31 0 0 0-.66 1.178c-.805 2.087-.612 5.464 3.739 6.664 4.633 1.281 22.929-21.838 29.85-32.726z" fill="#F5C7B5"/>
      <path d="M341.207 207.473c6.561-.36 27.309 4.024 37.642 4.217 12.672.238 7.983 9.012 4.123 10.184-10.168 3.08-39.524 6.689-41.667 1.571-.925-2.217-1.288-15.908-.098-15.972" fill="#F5C7B5"/>
      <g transform="matrix(-1 0 0 1 369.765 206.772)">
        <mask id="V" fill="#fff">
          <use xlink:href="#T"/>
        </mask>
        <path d="M28.558.7c-4.262-1.827-16.54 1.476-26.633 1.763C.312 6.89-.189 14.837 1.462 20.815c11.88 1.609 22.566.653 25.924-.891C36.02 15.95 34.072 3.06 28.558.7" fill="url(#U)" mask="url(#V)"/>
      </g>
      <path d="M330.07 180.184c2.071-28.76 25.388-16.64 24.841-9.086-.132 1.856-1.145 2.946-2.66.988-2.553-3.307-11.732-6.252-6.398 11.265 1.41 4.623 7.414 10.58-5.635 18.934-11.804 7.557-2.067 10.451-2.72 13.943-1.674 8.958-24.876-10.477-12.6-23.887 2.485-2.716 4.548-3.487 5.172-12.157" fill="#FFFFFE"/>
      <g transform="matrix(-1 0 0 1 357.88 170.036)">
        <mask id="Y" fill="#fff">
          <use xlink:href="#W"/>
        </mask>
        <path d="M4.352.494C3.752.13 3.179.025 2.668.063 1.398.155.507 1.12.507 1.12c3.016.995 5.49 3.775 5.49 3.775.665-1.455.613-3.03-1.645-4.402" fill="url(#X)" mask="url(#Y)"/>
      </g>
      <path d="M423.4 215.198c-.995 1.668-2.22 3.91-2.914 4.873-1.294-.652-4.871-3.42-4.85-3.478.214-.468.461-.94.732-1.407" fill="#F5C7B5"/>
    </g>
    <g transform="matrix(-1 0 0 1 464 110)">
      <mask id="ab" fill="#fff">
        <use xlink:href="#Z"/>
      </mask>
      <path d="M37.166.5C16.229 1.924.112 20.093.366 40.97c.177 14.74 7.81 27.55 20.577 34.34 4.549 2.414 7.286 7.228 7.286 12.357v.093h25.138v-.093c0-5.18 2.654-10.036 7.097-12.731 11.476-6.963 19.9-19.8 19.9-34.497C80.365 17.397 60.66-1.098 37.167.5" fill="url(#aa)" mask="url(#ab)"/>
    </g>
    <path d="M427.5 166c.827 0 1.5.666 1.5 1.486v39.028c0 .822-.673 1.486-1.5 1.486-.83 0-1.5-.664-1.5-1.486v-39.028c0-.82.67-1.486 1.5-1.486M418.5 166c.827 0 1.5.666 1.5 1.486v39.028c0 .822-.673 1.486-1.5 1.486-.83 0-1.5-.664-1.5-1.486v-39.028c0-.82.67-1.486 1.5-1.486" fill="#433975"/>
    <path d="M411.249 197h24.502c1.795 0 3.249 1.507 3.249 3.367v11.264c0 1.86-1.454 3.369-3.249 3.369H411.25c-1.795 0-3.249-1.509-3.249-3.369v-11.264c0-1.86 1.454-3.367 3.249-3.367" fill="#FFFFFE"/>
    <g>
      <g transform="matrix(-1 0 0 1 792.815 63.215)">
        <mask id="ae" fill="#fff">
          <use xlink:href="#ac"/>
        </mask>
        <path d="M487.236 331.457c-4.841-1.335-9.78-2.549-14.71-4.033-4.928-1.478-9.918-2.974-14.96-4.488-5.025-1.572-10.052-3.32-15.152-4.996-5.114-1.627-10.185-3.543-15.315-5.426-10.302-3.634-20.552-7.932-30.952-12.152l-15.508-6.823-3.895-1.727-3.854-1.846a9962.505 9962.505 0 0 0-7.73-3.702 7809.836 7809.836 0 0 0-7.757-3.714c-2.57-1.28-5.108-2.638-7.67-3.956-5.103-2.683-10.274-5.259-15.347-8.043-5.048-2.831-10.104-5.672-15.167-8.512l-3.796-2.13-3.729-2.254-7.452-4.51c-10.025-5.862-19.649-12.391-29.364-18.649-4.808-3.208-9.498-6.587-14.232-9.854-2.358-1.645-4.713-3.286-7.062-4.928-2.363-1.616-4.611-3.403-6.915-5.092l-13.67-10.206c-2.291-1.66-4.472-3.464-6.68-5.214l-6.584-5.256c-2.19-1.743-4.369-3.484-6.543-5.218-2.175-1.73-4.352-3.441-6.434-5.264-4.21-3.58-8.387-7.137-12.53-10.665-2.07-1.76-4.13-3.516-6.183-5.262l-5.98-5.399c-3.957-3.59-7.878-7.144-11.76-10.662-3.92-3.46-7.62-7.095-11.304-10.65-3.685-3.551-7.321-7.059-10.91-10.521-14.161-14.056-27.295-27.592-38.97-40.523l-8.647-9.406-8.002-9.227c-5.189-6.011-10.168-11.652-14.74-17.054L65.169 38.75a33511.84 33511.84 0 0 1-8.185-9.99c-.82-1.059-1.62-2.092-2.4-3.095L35.028.399.058 28.309l21.558 25.014 2.644 3.06 2.866 3.144 6.135 6.735L47.068 81.41c5.016 5.332 10.474 10.9 16.158 16.821l8.764 9.084 9.457 9.258c12.763 12.715 27.087 26.003 42.487 39.75l11.856 10.286c4 3.47 8.019 7.012 12.268 10.39l12.74 10.378c2.148 1.742 4.306 3.49 6.472 5.25 2.219 1.694 4.447 3.4 6.686 5.109 4.474 3.417 8.987 6.863 13.53 10.336 2.25 1.762 4.597 3.418 6.944 5.093l7.048 5.04c2.357 1.683 4.72 3.375 7.092 5.07 2.376 1.685 4.722 3.423 7.182 5.018 4.874 3.252 9.772 6.521 14.689 9.805 2.472 1.618 4.883 3.33 7.418 4.877l7.571 4.708c5.07 3.12 10.088 6.342 15.228 9.396 10.381 5.945 20.655 12.137 31.323 17.648l7.932 4.24 3.962 2.12 4.032 1.989a31082.75 31082.75 0 0 0 16.092 7.943c5.378 2.589 10.85 4.969 16.244 7.447 2.707 1.217 5.391 2.474 8.107 3.652 2.733 1.137 5.461 2.268 8.183 3.403 2.723 1.129 5.438 2.257 8.148 3.383l4.061 1.684 4.099 1.567 16.292 6.164c10.915 3.775 21.644 7.615 32.4 10.785 5.355 1.647 10.646 3.332 15.971 4.724 5.312 1.44 10.543 2.952 15.76 4.286 5.231 1.272 10.406 2.531 15.518 3.776 5.113 1.246 10.22 2.22 15.222 3.32 20.07 4.13 39.244 6.758 56.888 9.424 60.443 9.128 110.427 7.911 110.427 7.911s-87.753-6.945-164.083-31.088" fill="url(#ad)" mask="url(#ae)"/>
      </g>
      <g transform="matrix(-1 0 0 1 842 3)">
        <mask id="ah" fill="#fff">
          <use xlink:href="#af"/>
        </mask>
        <path fill="url(#ag)" mask="url(#ah)" d="M133.525 70.886L7.712.363.259 7.828l125.813 70.523 7.453-7.465"/>
      </g>
      <g transform="matrix(-1 0 0 1 842 10.465)">
        <mask id="ak" fill="#fff">
          <use xlink:href="#ai"/>
        </mask>
        <path d="M692.548 415.025c-5.546-.155-13.595-.55-23.856-1.159-10.265-.685-22.718-1.573-36.93-3.195-14.223-1.502-30.196-3.753-47.494-6.807-17.308-2.965-35.88-7.113-55.3-12.192-4.84-1.335-9.779-2.549-14.709-4.033-4.929-1.478-9.919-2.974-14.96-4.488-5.025-1.572-10.053-3.319-15.153-4.996-5.114-1.627-10.184-3.543-15.314-5.425-10.302-3.634-20.552-7.933-30.952-12.152-5.14-2.26-10.311-4.538-15.509-6.824l-3.894-1.727-3.854-1.845a9958.846 9958.846 0 0 0-7.73-3.703 7807.607 7807.607 0 0 0-7.758-3.713c-2.57-1.28-5.107-2.639-7.67-3.957-5.103-2.683-10.273-5.259-15.347-8.043-5.048-2.83-10.103-5.672-15.166-8.512l-3.796-2.13-3.73-2.254-7.452-4.51c-10.025-5.862-19.648-12.391-29.363-18.648-4.808-3.209-9.499-6.588-14.232-9.855-2.358-1.645-4.713-3.286-7.062-4.928-2.365-1.616-4.613-3.403-6.916-5.091l-13.67-10.207c-2.29-1.659-4.471-3.464-6.679-5.214l-6.585-5.255c-2.189-1.744-4.368-3.485-6.543-5.219-2.174-1.73-4.352-3.441-6.434-5.264-4.209-3.58-8.387-7.137-12.529-10.665-2.07-1.76-4.131-3.516-6.183-5.261-2.002-1.809-3.996-3.61-5.98-5.4-3.957-3.59-7.879-7.144-11.76-10.661-3.92-3.461-7.62-7.095-11.305-10.65l-10.91-10.522c-14.16-14.055-27.294-27.591-38.969-40.523l-8.648-9.406-8.002-9.227c-5.188-6.011-10.168-11.652-14.739-17.054l-12.564-15.344a33464.531 33464.531 0 0 1-8.186-9.99c-.82-1.059-1.62-2.092-2.4-3.095l-7.355-9.505 37.112-5.49L.26.363 40.78 138.96l13.84-35.548c2.566 2.977 5.476 6.354 8.73 10.127.858.995 1.74 2.013 2.643 3.06l2.867 3.144 6.134 6.735 13.808 15.149c5.015 5.331 10.473 10.899 16.158 16.82l8.764 9.084 9.456 9.259c12.763 12.714 27.086 26.003 42.487 39.75l11.857 10.285c4 3.47 8.018 7.013 12.267 10.39l12.74 10.378c2.148 1.741 4.307 3.491 6.472 5.25 2.22 1.693 4.448 3.4 6.686 5.11 4.475 3.417 8.988 6.863 13.53 10.336 2.25 1.761 4.597 3.417 6.945 5.092 2.341 1.674 4.692 3.357 7.048 5.04l7.091 5.07c2.376 1.685 4.722 3.423 7.183 5.018 4.874 3.252 9.771 6.522 14.688 9.805 2.473 1.618 4.883 3.33 7.418 4.878l7.57 4.707c5.07 3.12 10.09 6.343 15.23 9.396 10.38 5.945 20.654 12.137 31.323 17.648l7.932 4.24 3.962 2.12 4.031 1.99c5.372 2.652 10.737 5.301 16.093 7.942 5.377 2.59 10.85 4.97 16.244 7.448 2.707 1.216 5.39 2.474 8.106 3.652 2.734 1.136 5.461 2.268 8.183 3.402 2.723 1.129 5.439 2.258 8.148 3.384l4.062 1.684 4.098 1.566c5.458 2.065 10.893 4.12 16.293 6.165 10.914 3.774 21.644 7.614 32.4 10.784 5.354 1.647 10.645 3.333 15.97 4.724 5.312 1.44 10.544 2.952 15.76 4.287 5.232 1.272 10.407 2.53 15.519 3.776 5.112 1.245 10.22 2.22 15.222 3.319 20.069 4.13 39.164 7.34 56.887 9.424 17.708 2.168 33.985 3.588 48.43 4.346 14.436.878 27.036 1.108 37.399 1.253 10.372.064 18.54.032 24.053-.105l8.48-.16.038-4.87s-2.948-.098-8.476-.288" fill="url(#aj)" mask="url(#ak)"/>
      </g>
    </g>
    <g>
      <path d="M678.558 420.088l5.268.606s-.093 1.227.008 2.485c.191 2.426 12.633 1.52 12.633 6.185 0 2.533-7.482 2.615-9.762 2.615-10.16 0-12.075-3.398-12.075-4.355 0-3.14 1.911-5.063 2.666-6.004.934-1.162 1.262-1.532 1.262-1.532" fill="#5CC1D3"/>
      <path d="M684.777 421.038s-.7.871-.606 2.767c0 0-2.008.714-4 .479-1.123-.135-2.875-2.664-2.875-2.664.659-1.336 1.865-3.204 1.865-3.204l5.616 2.622" fill="#F5C7B5"/>
      <path d="M651.902 417.665l5.266.605s-.092 1.228.008 2.485c.192 2.427 13.305 5.567 13.305 10.234 0 2.531-11.797.315-13.993-.295-7.214-1.991-8.514-4.537-8.514-5.493 0-3.141 1.91-5.063 2.667-6.005.932-1.161 1.26-1.531 1.26-1.531" fill="#5CC1D3"/>
      <path d="M658.12 418.615s-.699.87-.605 2.766c0 0-2.01.715-4 .48-1.123-.135-2.874-2.665-2.874-2.665.656-1.336 1.864-3.203 1.864-3.203l5.615 2.622" fill="#F5C7B5"/>
      <g transform="matrix(-1 0 0 1 722 353.54)">
        <mask id="an" fill="#fff">
          <use xlink:href="#al"/>
        </mask>
        <path d="M2.865 15.693C21.49 44.665 37.434 68.812 37.434 68.812c.92-2.008 3.514-3.505 6.186-2.925 0 0-11.527-27.63-23.155-55.626-7.668-18.46-25.198-6.382-17.6 5.432" fill="url(#am)" mask="url(#an)"/>
      </g>
      <g transform="matrix(-1 0 0 1 695.25 351.558)">
        <mask id="aq" fill="#fff">
          <use xlink:href="#ao"/>
        </mask>
        <path d="M2.772 15.252A5811.814 5811.814 0 0 0 37.34 68.371c.921-2.008 3.516-3.505 6.188-2.925 0 0-11.528-27.63-23.156-55.626-7.669-18.46-25.197-6.382-17.6 5.432" fill="url(#ap)" mask="url(#aq)"/>
      </g>
      <g transform="matrix(-1 0 0 1 720.514 306.815)">
        <mask id="at" fill="#fff">
          <use xlink:href="#ar"/>
        </mask>
        <path d="M84.69.47C74.743 2.35 24.328 32.826 4.466 48.116c-8.45 6.507-3.68 14.48 6.344 13.308 25.965-3.029 67.004-10.11 82.594-24.171C118.186 14.9 89.999-.532 84.69.469" fill="url(#as)" mask="url(#at)"/>
      </g>
      <path d="M630.664 304.558c10.336 4.303 20.575 8.73 31.308 11.986 6.642 2.017 13.172 3.117 19.534 3.197-2.643 9.612-1.007 11.65 2.759 15.501-6.035 9.681-13.161 10.846-19.113 11.03-15.68.483-48.99-20.068-49.997-20.432 2.123-7.631 5.177-16.03 8.554-24.33 2.232 1.076 4.568 2.054 6.955 3.048" fill="#FFFFFE"/>
      <path d="M685.361 233.391c-.188.613-3.493 6.71-3.037 10.616-1.525 3.085-10.526.585-11.471-5.631 1.47-1.283 4.654-9.4 5.052-12.525.595.763 7.147 7.258 9.456 7.54" fill="#F5C7B5"/>
      <path d="M677.974 223.92c.917-4.438 4.617-7.522 9.08-6.596 4.155.865 7.836 2.919 7.662 7.038-.06 1.474-4.13 13.799-11.298 13.827-3.03.014-7.086-6.317-6.395-9.664l.951-4.606" fill="#F5C7B5"/>
      <path d="M641.683 257.798c-6.873 14.75-18.825 41.862-24.637 62.758a79.93 79.93 0 0 1 3.404 1.33l8.979-17.741-4.017 19.89c12.895 5.749 23.975 15.706 41.629 16.95l5.816-15.122-2.294 15.372c7.626.19 12.694-6.118 13.115-6.522-5.355-14.524 8.86-67.152 9.622-70.625 1.635-7.448 2.219-9.706-2.489-14.39-1.214-1.207-8.465-5.749-8.465-5.749s-3.19.44-6.717-1.374c-3.926-2.02-4.776-4.2-4.776-4.2s-2.876-.051-5.623-.119a479.65 479.65 0 0 1-7.462 6.321c-3.811 3.174-9.173 7.581-16.085 13.221z" fill="#433975"/>
      <path d="M679.87 210.004c7.764-3.253 17.187 4.597 18.2 11.947.757 5.48 3.656 2.623 3.813 1.269-.264 3.432-2.408 5.871-8.547 3.658-1.29-.462 2.58 2.023 2.58 2.023s-10.534 12.073-19.935 5.794c-2.792-1.867-4.638-5.624-4.638-5.624s3.195 1.487 2.185-1.744c-1.962-6.27-.513-14.453 6.342-17.323z" fill="#5CC1D3"/>
      <path d="M696.228 181.568c-.824-.158-1.774-.192-1.904.127-.398.788.335.849.95 1.067 1.083.466 2.183 1.087 3.07 1.855.214.271.43.535.65.79.053.053 4.339-1.549 5.51-2.416-1.24-2.012-5.616-7.941-5.692-8.1-1.254-2.665-2.406-2.868-2.727-2.093-.076.189-1.5-1.294-1.967-.622 0 0-.61-.334-1.064.1-.342.328-.651 1.418-.607 1.801.072.598 1.058 2.263 1.363 2.964.106.212 1.48 2.956 2.418 4.527zm2.106 3.037z" fill="#F5C7B5"/>
      <path d="M709.375 217.871c-.338-3.057-10.11-27.806-11.62-31.897l7.963-3.663c4.784 9.477 17.614 31.358 16.108 39.555-1.45 8.58-15.925 52.328-32.708 58.777-11.686 4.489-3.168-34.103-2.664-33.926 7.527 2.649 22.486-28.19 22.921-28.846" fill="#433975"/>
    </g>
  </g>
</svg>
