<?xml version="1.0" encoding="UTF-8"?>
<svg width="606px" height="316px" viewBox="0 0 606 316" version="1.1" xmlns="http://www.w3.org/2000/svg" xmlns:xlink="http://www.w3.org/1999/xlink">
    <!-- Generator: Sketch 55.2 (78181) - https://sketchapp.com -->
    <title>intersection</title>
    <desc>Created with Sketch.</desc>
    <defs>
        <circle id="path-1" cx="343" cy="160" r="16"></circle>
        <filter x="-75.0%" y="-62.5%" width="275.0%" height="275.0%" filterUnits="objectBoundingBox" id="filter-2">
            <feOffset dx="4" dy="8" in="SourceAlpha" result="shadowOffsetOuter1"></feOffset>
            <feGaussianBlur stdDeviation="8" in="shadowOffsetOuter1" result="shadowBlurOuter1"></feGaussianBlur>
            <feColorMatrix values="0 0 0 0 0   0 0 0 0 0   0 0 0 0 0  0 0 0 0.5 0" type="matrix" in="shadowBlurOuter1"></feColorMatrix>
        </filter>
        <circle id="path-3" cx="263" cy="160" r="16"></circle>
        <filter x="-75.0%" y="-62.5%" width="275.0%" height="275.0%" filterUnits="objectBoundingBox" id="filter-4">
            <feOffset dx="4" dy="8" in="SourceAlpha" result="shadowOffsetOuter1"></feOffset>
            <feGaussianBlur stdDeviation="8" in="shadowOffsetOuter1" result="shadowBlurOuter1"></feGaussianBlur>
            <feColorMatrix values="0 0 0 0 0   0 0 0 0 0   0 0 0 0 0  0 0 0 0.5 0" type="matrix" in="shadowBlurOuter1"></feColorMatrix>
        </filter>
        <circle id="path-5" cx="303" cy="160" r="16"></circle>
        <filter x="-75.0%" y="-62.5%" width="275.0%" height="275.0%" filterUnits="objectBoundingBox" id="filter-6">
            <feOffset dx="4" dy="8" in="SourceAlpha" result="shadowOffsetOuter1"></feOffset>
            <feGaussianBlur stdDeviation="8" in="shadowOffsetOuter1" result="shadowBlurOuter1"></feGaussianBlur>
            <feColorMatrix values="0 0 0 0 0   0 0 0 0 0   0 0 0 0 0  0 0 0 0.5 0" type="matrix" in="shadowBlurOuter1"></feColorMatrix>
        </filter>
    </defs>
    <g id="page" stroke="none" stroke-width="1" fill="none" fill-rule="evenodd">
        <g id="large" transform="translate(-70.000000, -1508.000000)">
            <g id="why" transform="translate(70.000000, 1309.000000)">
                <g id="intersection" transform="translate(0.000000, 199.000000)">
                    <path d="M531.910056,74.9625731 L531.501479,74.5055195 C509.219852,52.259551 479.608103,40.0040447 448.123372,40 L448.10719,40 C418.143499,40 389.579489,51.2362365 367.674077,71.6459014 C367.257409,72.03015 366.889284,72.4427116 366.537342,72.8633626 C365.841546,73.3285056 365.178114,73.8664535 364.563225,74.4772065 C342.285643,96.7514881 330.016185,126.366939 330,157.867231 C329.991913,189.363477 342.249235,218.987018 364.510636,241.273434 C367.059188,243.825653 370.392532,245.09974 373.733967,245.09974 C377.067312,245.09974 380.400656,243.829698 382.945163,241.285568 C388.042267,236.201353 388.046312,227.946076 382.957299,222.853772 C365.615008,205.489782 356.068051,182.410601 356.080187,157.87532 C356.088278,133.33195 365.647371,110.264903 383.001797,92.9130473 L383.863451,91.9625378 C384.409569,91.5904234 384.943551,91.1859512 385.441126,90.7208082 C402.508334,74.8210078 424.757599,66.0682304 448.103145,66.0682304 L448.115281,66.0682304 C472.524747,66.0722751 495.481942,75.5288341 512.808051,92.6946324 L513.04268,92.9575393 C530.393061,110.329618 539.944063,133.416889 539.923837,157.964304 C539.915746,171.506032 536.995024,184.586661 531.469116,196.514545 C528.499851,195.742003 525.380908,195.325397 522.168924,195.325397 C501.857368,195.325397 485.328187,211.848084 485.328187,232.164721 C485.328187,252.473268 501.857368,269 522.168924,269 C542.484525,269 559.013706,252.473268 559.013706,232.164721 C559.013706,224.70221 556.776643,217.757423 552.94977,211.949203 C561.461125,195.466962 565.987839,177.075613 566,157.984528 C566.020201,126.666249 553.916601,97.2125863 531.910056,74.9625731" id="Fill-4" fill="#FFFFFF"></path>
                    <path d="M507.042756,171 L507.046777,171 C514.202809,171 520,165.200161 520,158.04582 C520.00402,118.32717 487.689306,86.0080386 447.961264,86 L447.949203,86 C440.79317,86 435,91.8038585 435,98.9541801 C435,105.212219 439.434328,110.43328 445.336045,111.643087 L445.348106,111.647106 L446.393369,111.803859 L446.634584,111.844051 L447.430592,111.884244 L447.953223,111.912379 C473.397342,111.916399 494.093553,132.607717 494.089533,158.041801 C494.085513,165.200161 499.886724,170.995981 507.042756,171" id="Fill-5" fill="#FFFFFF"></path>
                    <path d="M190.780384,209.185421 C193.298639,211.727127 196.601596,213 199.900549,213 C203.203506,213 206.506463,211.727127 209.024717,209.185421 C236.977742,180.972082 236.993757,135.051661 209.06075,106.82216 C204.024241,101.730666 195.856929,101.726625 190.812413,106.805996 C185.771901,111.889408 185.763893,120.136819 190.800402,125.224271 C208.688416,143.303113 208.676406,172.700426 190.780384,190.767146 C185.739872,195.854598 185.739872,204.097968 190.780384,209.185421" id="Fill-7" fill="#FFFFFF"></path>
                    <path d="M98.9566321,145 L98.9566321,145 C91.8009379,145 86,150.800113 86,157.954793 C85.9959816,177.196056 93.4893602,195.287748 107.093219,208.893697 C120.697078,222.503665 138.791336,229.995981 158.035329,230 L158.04739,230 C165.203084,230 171,224.199887 171,217.049227 C171,211.413912 167.394013,206.634747 162.368946,204.850097 L161.89056,204.677259 L161.520715,204.580792 L160.648364,204.355701 L160.407161,204.319525 L159.365967,204.162765 L158.903661,204.138649 L158.039349,204.094434 C145.717887,204.090415 134.132095,199.291152 125.41662,190.576914 C116.705166,181.862676 111.909243,170.278527 111.909243,157.954793 C111.909243,150.800113 106.112326,145.004019 98.9566321,145" id="Fill-8" fill="#FFFFFF"></path>
                    <path d="M531.910056,74.9625731 L531.501479,74.5055195 C509.219852,52.259551 479.608103,40.0040447 448.123372,40 L448.10719,40 C418.143499,40 389.579489,51.2362365 367.674077,71.6459014 C367.257409,72.03015 366.889284,72.4427116 366.537342,72.8633626 C365.841546,73.3285056 365.178114,73.8664535 364.563225,74.4772065 C342.285643,96.7514881 330.016185,126.366939 330,157.867231 C329.991913,189.363477 342.249235,218.987018 364.510636,241.273434 C367.059188,243.825653 370.392532,245.09974 373.733967,245.09974 C377.067312,245.09974 380.400656,243.829698 382.945163,241.285568 C388.042267,236.201353 388.046312,227.946076 382.957299,222.853772 C365.615008,205.489782 356.068051,182.410601 356.080187,157.87532 C356.088278,133.33195 365.647371,110.264903 383.001797,92.9130473 L383.863451,91.9625378 C384.409569,91.5904234 384.943551,91.1859512 385.441126,90.7208082 C402.508334,74.8210078 424.757599,66.0682304 448.103145,66.0682304 L448.115281,66.0682304 C472.524747,66.0722751 495.481942,75.5288341 512.808051,92.6946324 L513.04268,92.9575393 C530.393061,110.329618 539.944063,133.416889 539.923837,157.964304 C539.915746,171.506032 536.995024,184.586661 531.469116,196.514545 C528.499851,195.742003 525.380908,195.325397 522.168924,195.325397 C501.857368,195.325397 485.328187,211.848084 485.328187,232.164721 C485.328187,252.473268 501.857368,269 522.168924,269 C542.484525,269 559.013706,252.473268 559.013706,232.164721 C559.013706,224.70221 556.776643,217.757423 552.94977,211.949203 C561.461125,195.466962 565.987839,177.075613 566,157.984528 C566.020201,126.666249 553.916601,97.2125863 531.910056,74.9625731" id="Fill-10" fill="#F3F3F5"></path>
                    <path d="M507.042756,171 L507.046777,171 C514.202809,171 520,165.200161 520,158.04582 C520.00402,118.32717 487.689306,86.0080386 447.961264,86 L447.949203,86 C440.79317,86 435,91.8038585 435,98.9541801 C435,105.212219 439.434328,110.43328 445.336045,111.643087 L445.348106,111.647106 L446.393369,111.803859 L446.634584,111.844051 L447.430592,111.884244 L447.953223,111.912379 C473.397342,111.916399 494.093553,132.607717 494.089533,158.041801 C494.085513,165.200161 499.886724,170.995981 507.042756,171" id="Fill-11" fill="#FFFFFF"></path>
                    <path d="M190.780384,209.185421 C193.298639,211.727127 196.601596,213 199.900549,213 C203.203506,213 206.506463,211.727127 209.024717,209.185421 C236.977742,180.972082 236.993757,135.051661 209.06075,106.82216 C204.024241,101.730666 195.856929,101.726625 190.812413,106.805996 C185.771901,111.889408 185.763893,120.136819 190.800402,125.224271 C208.688416,143.303113 208.676406,172.700426 190.780384,190.767146 C185.739872,195.854598 185.739872,204.097968 190.780384,209.185421" id="Fill-13" fill="#FFFFFF"></path>
                    <path d="M98.9566321,145 L98.9566321,145 C91.8009379,145 86,150.800113 86,157.954793 C85.9959816,177.196056 93.4893602,195.287748 107.093219,208.893697 C120.697078,222.503665 138.791336,229.995981 158.035329,230 L158.04739,230 C165.203084,230 171,224.199887 171,217.049227 C171,211.413912 167.394013,206.634747 162.368946,204.850097 L161.89056,204.677259 L161.520715,204.580792 L160.648364,204.355701 L160.407161,204.319525 L159.365967,204.162765 L158.903661,204.138649 L158.039349,204.094434 C145.717887,204.090415 134.132095,199.291152 125.41662,190.576914 C116.705166,181.862676 111.909243,170.278527 111.909243,157.954793 C111.909243,150.800113 106.112326,145.004019 98.9566321,145" id="Fill-14" fill="#FFFFFF"></path>
                    <path d="M356.167794,158 C356.171854,150.79565 350.313938,144.958549 343.092016,144.958549 L343.083897,144.958549 C335.861976,144.958549 330.00406,150.791605 330,157.99191 C330.016238,126.488555 342.328823,96.8702232 364.684709,74.5937753 C364.725304,74.5573692 364.7659,74.5169181 364.806495,74.4764669 C364.806495,74.4764669 364.810555,74.4764669 364.810555,74.4724218 C364.818674,74.4683767 364.826793,74.4602865 364.830853,74.4521963 C365.395129,73.9061057 366.00406,73.4247371 366.633288,73 C362.504736,77.9674011 362.614344,85.3416456 367.14885,90.1917384 C369.726658,92.9464617 373.217862,94.3379812 376.721245,94.3379812 C379.258457,94.3379812 381.799729,93.6098606 384,92.1374387 L383.188092,93.0314091 C371.188092,104.988769 362.906631,119.65231 358.907984,135.646695 C357.101488,142.87127 356.171854,150.362823 356.167794,158" id="Fill-19" fill="#7DC4DD"></path>
                    <path d="M373.909577,245 C370.554724,245 367.207995,243.729309 364.649209,241.183892 C352.06242,228.670608 342.663959,213.833774 336.85186,197.653638 C332.416631,185.289609 330.073108,172.142996 330.004062,158.641397 C330,158.427598 330,158.213799 330,158 C330,165.176381 335.856776,170.997357 343.090423,171.001391 C350.315947,171.001391 356.180847,165.184448 356.180847,158.008068 C356.176785,163.00612 356.57888,167.93963 357.362762,172.780359 C360.412997,191.643066 369.315947,209.033384 383.169944,222.813326 C385.724669,225.354709 387,228.678676 387,232.006677 C386.995938,235.334678 385.716546,238.658645 383.15776,241.195994 C380.603035,243.733343 377.256306,245 373.909577,245" id="Fill-23" fill="#92E0C5"></path>
                    <path d="M521.847596,243 C515.869601,243 511,238.17234 511,232.23185 C511,226.291359 515.869601,221.459652 521.847596,221.459652 C527.833741,221.459652 532.695192,226.291359 532.695192,232.23185 C532.695192,238.17234 527.833741,243 521.847596,243 M552.854116,211.998572 C547.874491,204.496072 540.205379,198.895501 531.220049,196.568674 C536.790546,184.635087 539.728606,171.540109 539.736756,158 C539.732681,165.199 545.604727,171.046418 552.862266,171.050464 L552.870416,171.050464 C560.115729,171.050464 565.995925,165.215187 566,158.016187 C566,158.052607 566,158.08498 566,158.1214 C566,158.129493 566,158.141633 566,158.153773 C566,158.174006 566,158.198286 566,158.222566 C566,158.234706 566,158.250893 566,158.263033 C566,158.283266 566,158.307546 566,158.327779 C566,158.339919 566,158.352059 566,158.368246 C566,158.388479 566,158.408712 566,158.432992 C566,158.445132 566,158.461319 566,158.473459 C566,158.505832 566,158.538205 566,158.570578 C566,158.582718 566,158.586765 566,158.598905 C566,158.623185 566,158.647465 566,158.675791 C566,158.687931 566,158.700071 566,158.712211 C566,158.736491 566,158.760771 566,158.781005 C565.995925,158.793144 565.995925,158.805284 565.995925,158.817424 C565.995925,158.841704 565.995925,158.861938 565.995925,158.882171 C565.995925,158.898358 565.995925,158.910498 565.995925,158.922637 C565.995925,158.950964 565.995925,158.979291 565.995925,159.003571 C565.995925,159.011664 565.995925,159.019757 565.995925,159.027851 C565.995925,159.060224 565.995925,159.096644 565.995925,159.133064 C565.995925,159.13711 565.995925,159.13711 565.995925,159.145204 C565.995925,159.177577 565.995925,159.20995 565.995925,159.242323 C565.99185,159.24637 565.99185,159.250417 565.99185,159.254463 C565.99185,159.286836 565.99185,159.31921 565.99185,159.347536 C565.99185,159.35563 565.99185,159.359676 565.99185,159.36777 C565.771801,177.982385 561.228199,195.900976 552.854116,211.998572" id="Fill-28" fill="#7EC5DE"></path>
                    <path d="M566,158 C566.004008,150.786311 560.225617,144.926963 553.08784,144.922908 L553.07982,144.922908 C545.946053,144.922908 540.159642,150.770091 540.155632,157.98378 C540.159642,148.320924 538.704017,138.885143 535.897026,129.931897 C531.54619,116.080317 523.955284,103.388441 513.505258,92.8091748 L513.272679,92.5456055 C513.208519,92.4847819 513.14436,92.4199033 513.0802,92.3550247 C513.05213,92.3266403 513.02406,92.294201 513,92.2658166 C513.180449,92.4442327 513.356889,92.6226489 513.537338,92.8051199 C516.05962,95.3556598 519.363849,96.6248473 522.672089,96.6248473 C525.976318,96.6248473 529.288567,95.34755 531.810849,92.7929552 C536.630853,87.9108408 536.839373,80.133519 532.436407,75 C550.958537,94.0459231 562.35492,118.314573 565.26216,144.501197 C565.26216,144.509307 565.26216,144.517417 565.26216,144.521471 C565.26617,144.545801 565.26617,144.566076 565.27018,144.590405 C565.27018,144.598515 565.27018,144.60257 565.27419,144.61068 C565.27419,144.635009 565.2782,144.651229 565.2782,144.675558 C565.28221,144.683668 565.28221,144.691778 565.28221,144.703943 C565.28622,144.720162 565.28622,144.740437 565.29023,144.760711 C565.29023,144.772876 565.29023,144.780986 565.29424,144.793151 C565.29424,144.805315 565.29424,144.821535 565.29825,144.8337 C565.29825,144.853974 565.30226,144.870194 565.30226,144.886414 C565.30226,144.898578 565.30627,144.906688 565.30627,144.914798 C565.30627,144.935073 565.31028,144.955347 565.31429,144.975622 C565.31429,144.987786 565.31429,144.995896 565.31429,145.008061 C565.3183,145.028336 565.32231,145.04861 565.32231,145.068885 C565.32231,145.07294 565.32231,145.081049 565.32231,145.085104 C565.32632,145.109434 565.33033,145.133763 565.33033,145.158093 C565.33434,145.166203 565.33434,145.174312 565.33434,145.182422 C565.33835,145.202697 565.33835,145.227026 565.34236,145.251356 C565.34236,145.255411 565.34236,145.259466 565.34236,145.26352 C565.34637,145.28785 565.35038,145.316234 565.35038,145.340564 C565.35038,145.344619 565.35038,145.352729 565.35439,145.360838 C565.35439,145.385168 565.3584,145.409497 565.36241,145.433827 C565.36241,145.437882 565.36241,145.437882 565.36241,145.441937 C565.36642,145.470321 565.36642,145.49465 565.37043,145.523035 C565.37043,145.52709 565.37043,145.523035 565.37043,145.52709 C565.775439,149.488739 565.987968,153.490938 566,157.525575 C566,157.52963 566,157.533685 566,157.53774 C566,157.594509 566,157.655332 566,157.712101 C566,157.716156 566,157.720211 566,157.724266 C566,157.744541 566,157.76887 566,157.789145 C566,157.797254 566,157.809419 566,157.813474 C566,157.833749 566,157.854023 566,157.874298 C566,157.886462 566,157.894572 566,157.906737 C566,157.939176 566,157.967561 566,158" id="Fill-32" fill="#A3B0CE"></path>
                    <path d="M512.711978,93 C495.685061,76.3755691 473.271871,67.122386 449.41319,66.8695887 C449.409152,66.8695887 449.401077,66.8695887 449.397039,66.8695887 C449.352624,66.8695887 449.312248,66.865576 449.271871,66.865576 C449.263795,66.865576 449.25572,66.865576 449.247645,66.865576 C449.207268,66.865576 449.170929,66.865576 449.130552,66.865576 C449.114401,66.865576 449.094213,66.865576 449.078062,66.865576 C449.049798,66.865576 449.017497,66.865576 448.985195,66.865576 C448.960969,66.865576 448.932705,66.865576 448.908479,66.865576 C448.888291,66.865576 448.864065,66.865576 448.843876,66.865576 C448.815612,66.865576 448.783311,66.865576 448.755047,66.865576 C448.738896,66.865576 448.718708,66.865576 448.69852,66.8615634 C448.674293,66.8615634 448.650067,66.8615634 448.625841,66.8615634 C448.601615,66.8615634 448.581427,66.8615634 448.557201,66.8615634 C448.508748,66.8615634 448.460296,66.8615634 448.415882,66.8615634 L448.403769,66.8615634 C425.102288,66.8615634 402.89502,75.5449495 385.860027,91.3186974 C385.367429,91.7761401 384.838493,92.173393 384.297443,92.5425573 C388.48856,87.458523 388.197847,79.950845 383.425303,75.2038738 C380.885599,72.6839262 377.554509,71.4199398 374.223419,71.4199398 C371.699865,71.4199398 369.18035,72.1462304 367,73.594799 C367.2786,73.2617486 367.569314,72.9367235 367.884253,72.6277491 C367.960969,72.5515086 368.041723,72.4752682 368.122476,72.3990277 C385.965007,55.8749132 408.244953,45.4099082 432.087483,42.1195308 C432.091521,42.1155182 432.099596,42.1155182 432.107672,42.1155182 C432.12786,42.1115055 432.148048,42.1115055 432.168237,42.1074929 C437.510094,41.3731769 442.936743,41 448.407806,41 L448.423957,41 C479.84926,41.0040127 509.405114,53.1623582 531.644684,75.2319623 L532,75.6252026 C531.878869,75.5008102 531.757739,75.3804306 531.636608,75.2600509 C529.092867,72.7320781 525.761777,71.4680917 522.426649,71.4680917 C519.103634,71.4680917 515.776581,72.7280654 513.236878,75.248013 C508.327052,80.1193765 508.149394,87.9159657 512.711978,93" id="Fill-37" fill="#A2AFCE"></path>
                    <path d="M507.055187,171 L507.051169,171 C499.899782,170.995981 494.102338,165.200161 494.106356,158.041801 C494.110373,141.916399 485.793873,127.696141 473.230735,119.448553 C465.97489,114.685691 457.304838,111.90836 448,111.90836 C455.151387,111.90836 460.948831,106.108521 460.948831,98.9541801 C460.948831,91.7998392 455.151387,86.0040193 448.004018,86 L448.008035,86 C487.702249,86.0080386 519.991965,118.315113 520,158.025723 C520,158.033762 520,158.041801 520,158.049839 C520,165.20418 514.206573,171 507.055187,171" id="Fill-46" fill="#77BFB8"></path>
                    <path d="M445.446789,111.749922 L445.438722,111.745889 C444.071362,111.475644 442.776606,110.987589 441.598821,110.318027 C441.594787,110.313993 441.590754,110.313993 441.58672,110.30996 C441.582687,110.30996 441.578653,110.305926 441.57462,110.301893 C441.562519,110.297859 441.554452,110.293826 441.546385,110.289792 C437.843624,108.168166 435.286379,104.27583 435.020168,99.7704002 C435.020168,99.7663667 435.020168,99.7663667 435.020168,99.7663667 C435.020168,99.7542662 435.020168,99.7461992 435.020168,99.7340987 C435.020168,99.7300652 435.020168,99.7300652 435.020168,99.7300652 C435.020168,99.7179646 435.020168,99.7098976 435.016134,99.6977971 C435.016134,99.6937636 435.016134,99.6937636 435.016134,99.6897301 C435.016134,99.6776295 435.016134,99.6695625 435.016134,99.6614955 C435.016134,99.657462 435.016134,99.657462 435.016134,99.6534285 C435.012101,99.6090599 435.012101,99.5646913 435.008067,99.5243562 C435.008067,99.5203227 435.008067,99.5122557 435.008067,99.5082222 C435.008067,99.5041886 435.008067,99.4961216 435.008067,99.4880546 C435.008067,99.4799876 435.008067,99.4759541 435.008067,99.4719206 C435.008067,99.4638536 435.008067,99.4557865 435.008067,99.4477195 C435.008067,99.443686 435.008067,99.435619 435.008067,99.4315855 C435.008067,99.4235185 435.004034,99.4154514 435.004034,99.4114179 C435.004034,99.4033509 435.004034,99.3993174 435.004034,99.3912504 C435.004034,99.3831834 435.004034,99.3791499 435.004034,99.3710828 C435.004034,99.3630158 435.004034,99.3589823 435.004034,99.3509153 C435.004034,99.3428483 435.004034,99.3388148 435.004034,99.3307478 C435.004034,99.3226807 435.004034,99.3146137 435.004034,99.3065467 C435.004034,99.2984797 435.004034,99.2904127 435.004034,99.2823456 C435.004034,99.2742786 435,99.2621781 435,99.2541111 C435,99.2500776 435,99.2460441 435,99.237977 C435,99.22991 435,99.221843 435,99.213776 C435,99.2097425 435,99.205709 435,99.1976419 C435,99.1895749 435,99.1815079 435,99.1734409 C435,99.1694074 435,99.1653739 435,99.1573069 C435,99.1532733 435,99.1452063 435,99.1371393 C435,99.1290723 435,99.1250388 435,99.1210053 C435,99.1089047 435,99.1008377 435,99.0927707 C435,99.0887372 435,99.0847037 435,99.0806702 C435,99.0685697 435,99.0605026 435,99.0524356 C435,99.0484021 435,99.0443686 435,99.0403351 C435,99.0282346 435,99.0121005 435,99 C435,98.983866 435,98.9677319 435,98.9515979 C435,98.8910953 435,98.8265591 435,98.7660565 C435.040335,96.4871238 435.665529,94.3533975 436.734409,92.5060503 C436.738442,92.5020168 436.738442,92.4979832 436.738442,92.4979832 C436.742476,92.4899162 436.746509,92.4858827 436.746509,92.4818492 C438.997208,88.6056469 443.192057,86 447.995966,86 C448,86 448,86 448,86 C440.824387,86.0040335 435.008067,91.8203537 435.004034,98.9959665 C435,105.304375 439.489296,110.564071 445.446789,111.749922" id="Fill-50" fill="#F0A689"></path>
                    <path d="M239.376137,243 C243.50094,238.028081 243.383204,230.665271 238.852417,225.822807 C236.274415,223.063776 232.778889,221.668079 229.275242,221.668079 C226.741899,221.668079 224.200436,222.396269 222,223.868831 L222.811969,222.974775 C240.228705,205.623626 249.826178,182.544048 249.834298,158 C249.830238,165.196944 255.684535,171.038646 262.915119,171.042692 C270.141643,171.042692 276,165.205035 276,158.008091 C276,165.459902 275.305766,172.810575 273.957898,179.979201 C269.601684,203.119461 258.384332,224.406882 241.316743,241.410119 C240.711826,242.016944 240.062251,242.538813 239.376137,243" id="Fill-58" fill="#77BFB8"></path>
                    <path d="M276,158 C276.004053,150.819253 270.142381,144.993972 262.911767,144.993972 L262.907705,144.993972 C255.681152,144.993972 249.81948,150.815218 249.81948,157.991932 C249.81948,157.895113 249.81948,157.802328 249.81948,157.705509 C249.750424,133.339377 240.175953,110.437633 222.826541,93.1877029 C217.720427,88.1047018 217.72449,79.8750811 222.838727,74.8001484 C225.393815,72.2667161 228.741021,71 232.088227,71 C235.443557,71 238.794825,72.2707503 241.353975,74.8122508 C249.563565,82.9732913 256.4164,92.1226931 261.802802,101.99017 C266.202102,110.050357 269.622427,118.582537 272.002842,127.453584 C274.643235,137.292822 276.004053,147.543541 276,158" id="Fill-62" fill="#77BFB8"></path>
                    <path d="M65.8452628,158 C65.8492723,150.797296 60.0675676,144.954204 52.9306504,144.950157 L52.9226314,144.950157 C45.7897238,144.950157 40.0040095,150.78111 40,157.983814 C40,157.947396 40,157.915024 40,157.878606 C40,157.870513 40,157.858374 40,157.850281 C40,157.821956 40,157.801723 40,157.773398 C40,157.765305 40,157.749119 40,157.73698 C40,157.716748 40,157.692469 40,157.672237 C40,157.656051 40,157.643911 40,157.631772 C40,157.607493 40,157.579168 40.0040095,157.554889 C40.0040095,157.546796 40.0040095,157.538703 40.0040095,157.53061 C40.0040095,157.494192 40.0040095,157.46182 40.0040095,157.425402 L40.0040095,157.421356 C40.0040095,157.388984 40.0040095,157.352566 40.0040095,157.320194 C40.0040095,157.312101 40.0040095,157.304008 40.0040095,157.295915 C40.0040095,157.26759 40.0040095,157.239265 40.0040095,157.21094 C40.0040095,157.206893 40.0040095,157.1988 40.0040095,157.190707 C40.0040095,157.158336 40.0040095,157.125964 40.0040095,157.093592 C40.0040095,157.093592 40.0040095,157.089546 40.0040095,157.085499 C40.1523612,138.34633 44.6069201,120.307198 52.8825364,104.097068 C57.8062073,111.578977 65.3641224,117.155003 74.2090882,119.457441 C68.7361152,131.382367 65.8532819,144.464582 65.8452628,158 M83.3267003,94.5393221 C77.4407484,94.5393221 72.6534007,89.7118918 72.6534007,83.7716843 C72.6534007,77.8314767 77.4407484,73 83.3267003,73 C89.2126522,73 94,77.8314767 94,83.7716843 C94,89.7118918 89.2126522,94.5393221 83.3267003,94.5393221" id="Fill-67" fill="#7EC5DE"></path>
                    <path d="M52.0859391,103.361218 C52.0585983,103.320367 52.031335,103.279461 52.0041492,103.238499 C52.0041492,103.234346 52.0041492,103.234346 52.0082985,103.230194 C52.0041492,103.230194 52.0041492,103.226042 52,103.22189 C57.6927487,92.1689088 65.1323249,81.9505066 74.1776545,72.9154625 C76.7916717,70.3037701 80.2064911,69 83.6254598,69 C87.0527268,69 90.4758447,70.3079223 93.089862,72.9237668 C98.309598,78.1554559 98.3012996,86.6258097 93.0774143,91.8491945 C85.2099537,99.7139876 78.8996018,108.723333 74.3042312,118.50597 C74.3614655,118.520963 74.4187524,118.535825 74.4760915,118.550557 C68.8004158,130.75607 65.8108108,144.146101 65.8024948,158 C65.8066528,150.627821 59.8108108,144.647244 52.4095634,144.643102 L52.4012474,144.643102 C45.004158,144.643102 39.004158,150.611254 39,157.983433 C39,157.946158 39,157.913025 39,157.87575 C39,157.867466 39,157.855041 39,157.846758 C39,157.817766 39,157.797058 39,157.768066 C39,157.759783 39,157.743216 39,157.730791 C39,157.710083 39,157.685233 39,157.664524 C39,157.647958 39,157.635533 39,157.623108 C39,157.598258 39,157.569266 39.004158,157.544416 C39.004158,157.536133 39.004158,157.527849 39.004158,157.519566 C39.004158,157.482291 39.004158,157.449157 39.004158,157.411882 L39.004158,157.407741 C39.004158,157.374607 39.004158,157.337332 39.004158,157.304199 C39.004158,157.295915 39.004158,157.287632 39.004158,157.279349 C39.004158,157.250357 39.004158,157.221365 39.004158,157.192374 C39.004158,157.188232 39.004158,157.179949 39.004158,157.171665 C39.004158,157.138532 39.004158,157.105398 39.004158,157.072265 C39.004158,157.072265 39.004158,157.068123 39.004158,157.063982 C39.1563604,138.088819 43.6793419,119.814937 52.0859391,103.361218 Z M76.6923596,73.6908117 C74.1191857,75.7161093 72.4640209,78.859172 72.4640209,82.3823285 C72.4640209,88.4776615 77.418206,93.4311576 83.5092812,93.4311576 C86.3733915,93.4311576 88.9861338,92.3359325 90.9506428,90.5417616 C89.0392207,92.1061865 86.5936722,93.0461297 83.9313929,93.0461297 C77.8274428,93.0461297 72.8627859,88.1051128 72.8627859,82.0251357 C72.8627859,78.6997425 74.3479394,75.7138249 76.6923596,73.6908117 Z" id="Combined-Shape" fill="#8DC9D1"></path>
                    <path d="M73.5934148,241 C52.585997,219.421865 40.7382307,191.125397 40.0361111,160.93547 C40.032099,160.903034 40.032099,160.874652 40.032099,160.84627 C40.032099,160.842216 40.032099,160.842216 40.032099,160.842216 C40.032099,160.813834 40.032099,160.781398 40.0280869,160.753016 C40.0280869,160.72058 40.0280869,160.692199 40.0280869,160.663817 C40.0280869,160.659763 40.0280869,160.655708 40.0280869,160.651654 C40.0280869,160.627326 40.0280869,160.598945 40.0280869,160.574618 C40.0280869,160.566509 40.0240748,160.5584 40.0240748,160.550291 C40.0240748,160.530018 40.0240748,160.505691 40.0240748,160.485418 C40.0240748,160.473255 40.0240748,160.461091 40.0240748,160.452982 C40.0240748,160.43271 40.0240748,160.408383 40.0240748,160.38811 C40.0240748,160.380001 40.0240748,160.371892 40.0240748,160.363783 C40.0200626,160.34351 40.0200626,160.323238 40.0200626,160.302965 C40.0200626,160.286747 40.0200626,160.274584 40.0200626,160.26242 C40.0200626,160.242147 40.0200626,160.225929 40.0200626,160.205657 C40.0200626,160.197548 40.0200626,160.185384 40.0200626,160.177275 C40.0200626,160.157003 40.0200626,160.13673 40.0160505,160.116457 C40.0160505,160.100239 40.0160505,160.088076 40.0160505,160.071858 C40.0160505,160.059694 40.0160505,160.043476 40.0160505,160.027258 C40.0160505,160.01104 40.0160505,159.994822 40.0160505,159.978604 C40.0160505,159.962386 40.0160505,159.950222 40.0160505,159.934004 C40.0160505,159.913732 40.0160505,159.893459 40.0120384,159.873186 C40.0120384,159.865077 40.0120384,159.852914 40.0120384,159.844805 C40.0120384,159.816423 40.0120384,159.792096 40.0120384,159.767769 C40.0120384,159.763715 40.0120384,159.75966 40.0120384,159.755605 C40.0120384,159.727224 40.0120384,159.702897 40.0120384,159.67857 C40.0120384,159.670461 40.0120384,159.666406 40.0120384,159.662352 C40.0120384,159.629915 40.0080263,159.601534 40.0080263,159.573152 L40.0080263,159.569098 C40.0080263,159.544771 40.0080263,159.516389 40.0080263,159.492062 C40.0080263,159.483953 40.0080263,159.483953 40.0080263,159.475844 C40.0080263,159.451517 40.0080263,159.431244 40.0080263,159.410972 C40.0080263,159.398808 40.0080263,159.394754 40.0080263,159.38259 C40.0080263,159.358263 40.0080263,159.329881 40.0080263,159.3015 C40.0080263,159.3015 40.0080263,159.297445 40.0080263,159.293391 C40.0080263,159.269064 40.0080263,159.244736 40.0080263,159.220409 C40.0080263,159.216355 40.0080263,159.208246 40.0080263,159.200137 C40.0040142,159.17581 40.0040142,159.151483 40.0040142,159.127155 C40.0040142,159.119046 40.0040142,159.114992 40.0040142,159.106883 C40.0040142,159.082556 40.0040142,159.058229 40.0040142,159.033902 C40.0040142,159.029847 40.0040142,159.021738 40.0040142,159.013629 C40.0040142,158.993356 40.0040142,158.977138 40.0040142,158.956866 C40.0040142,158.940648 40.0040142,158.932539 40.0040142,158.920375 C40.0040142,158.904157 40.0040142,158.887939 40.0040142,158.871721 C40.0040142,158.855503 40.0040142,158.843339 40.0040142,158.831176 C40.0040142,158.802794 40.0040142,158.778467 40.0040142,158.750085 C40.0040142,158.746031 40.0040142,158.741976 40.0040142,158.737922 C40.0040142,158.677104 40.0040142,158.616286 40,158.555469 C40,158.433833 40,158.316252 40,158.194617 C40,158.190562 40,158.186508 40,158.182453 C40,158.121635 40,158.060818 40,158 C39.99599,165.212984 45.7814553,171.067706 52.9230144,171.07176 L52.9310387,171.07176 C60.0685857,171.07176 65.8580631,165.229202 65.8620753,158.016218 C65.8460268,182.627131 75.3146108,205.770309 92.5185466,223.180402 C92.5265708,223.184456 92.5305829,223.192565 92.5386071,223.200674 L92.7512491,223.439891 C92.8234671,223.512872 92.891673,223.581799 92.9598789,223.650725 C92.9719152,223.662889 92.9879637,223.679107 93,223.691271 C92.8274792,223.525035 92.6589705,223.354746 92.4904618,223.184456 C89.9668434,220.634165 86.6608632,219.361047 83.3588952,219.361047 C80.0448907,219.361047 76.7308863,220.642274 74.207268,223.19662 C69.3766853,228.082312 69.1760797,235.871037 73.5934148,241" id="Fill-71" fill="#A2AFCE"></path>
                    <path d="M157.584331,276 L157.564138,276 C126.132682,275.99599 96.567002,263.845145 74.3271165,241.785147 L74,241.432251 C74.1090388,241.540526 74.2180777,241.648801 74.331155,241.761086 C76.8713562,244.283489 80.2030986,245.550706 83.5388795,245.550706 C86.8665834,245.550706 90.1942874,244.287499 92.7344886,241.769106 C97.6533519,236.892728 97.8229679,229.076887 93.2312211,224 C110.160511,240.537981 132.424627,249.781445 156.142595,250.142361 L156.146633,250.142361 C156.191057,250.142361 156.239518,250.142361 156.28798,250.142361 C156.332403,250.142361 156.380865,250.142361 156.429327,250.146372 C156.477788,250.146372 156.522212,250.146372 156.570673,250.146372 C156.582789,250.146372 156.594904,250.146372 156.60702,250.146372 C156.643366,250.146372 156.675674,250.146372 156.71202,250.146372 C156.720097,250.146372 156.732212,250.146372 156.736251,250.146372 C156.776636,250.146372 156.812982,250.150382 156.853367,250.150382 C156.869521,250.150382 156.889713,250.150382 156.905867,250.150382 C156.934136,250.150382 156.966444,250.150382 156.998752,250.150382 C157.022983,250.150382 157.051252,250.150382 157.079521,250.150382 C157.099714,250.150382 157.119906,250.150382 157.140098,250.150382 C157.168368,250.150382 157.200676,250.150382 157.228945,250.150382 C157.245099,250.150382 157.265291,250.150382 157.285484,250.150382 C157.378368,250.150382 157.475292,250.150382 157.568177,250.150382 L157.584331,250.150382 C180.882297,250.150382 203.097951,241.472353 220.13628,225.712347 C220.144357,225.704326 220.152434,225.696306 220.160511,225.688286 C220.649167,225.239146 221.17013,224.846148 221.703209,224.489242 C217.507233,229.566129 217.798003,237.077196 222.571481,241.813218 C225.111682,244.339631 228.443425,245.602838 231.775167,245.602838 C234.295176,245.602838 236.819223,244.876995 239,243.433331 C238.652691,243.846379 238.28519,244.247397 237.877304,244.624354 C237.663265,244.824863 237.449225,245.021362 237.235186,245.217861 C215.44761,265.07226 187.194434,276 157.584331,276" id="Fill-76" fill="#A2AFCE"></path>
                    <path d="M199.899998,213 C196.600929,213 193.297857,211.727086 190.779515,209.185298 C188.257169,206.63947 187,203.309687 187,199.975864 C187,196.642041 188.257169,193.308218 190.779515,190.76643 C199.727838,181.7348 204.204001,169.86639 204.208005,157.99798 C204.212008,146.129569 199.743853,134.261159 190.799534,125.221447 C188.281192,122.679659 187.024022,119.345836 187.028026,116.012013 C187.028026,112.67819 188.289199,109.348407 190.811545,106.80662 C193.329887,104.268873 196.628956,103 199.932028,103 C203.2351,103 206.538172,104.272914 209.060518,106.818743 C209.384819,107.150105 209.709121,107.481467 210.029419,107.816869 C223.349808,121.802763 230.008,139.906433 230,158.010102 C229.995989,176.546159 223.001484,195.078175 209.024484,209.185298 C206.506142,211.727086 203.20307,213 199.899998,213" id="Fill-85" fill="#92DFC5"></path>
                    <path d="M157.995982,230 L157.991965,230 C138.759556,229.99598 120.67619,222.50331 107.08052,208.892698 C98.6756319,200.479523 92.6009709,190.349948 89.1940182,179.295848 C87.0887785,172.470444 86,165.295328 86,157.951386 C86,150.796368 91.7974443,145 98.948831,145 C105.947548,145 111.648569,150.555188 111.885609,157.497163 L111.885609,157.501182 C111.889627,157.513241 111.889627,157.5253 111.889627,157.537359 C111.889627,157.541379 111.889627,157.541379 111.889627,157.545399 C111.889627,157.557458 111.889627,157.569517 111.889627,157.581576 C111.889627,157.581576 111.889627,157.585595 111.889627,157.589615 C111.889627,157.597654 111.889627,157.609713 111.889627,157.621772 C111.889627,157.625792 111.889627,157.629812 111.889627,157.629812 C111.893644,157.641871 111.893644,157.65393 111.893644,157.661969 C111.893644,157.665989 111.893644,157.670009 111.893644,157.674028 C111.893644,157.686087 111.893644,157.694127 111.893644,157.706186 C111.893644,157.710205 111.893644,157.714225 111.893644,157.718245 C111.893644,157.726284 111.893644,157.738343 111.893644,157.746382 C111.893644,157.750402 111.893644,157.758441 111.893644,157.762461 C111.893644,157.7705 111.893644,157.77854 111.893644,157.786579 C111.893644,157.794618 111.893644,157.802658 111.893644,157.810697 C111.893644,157.814717 111.893644,157.822756 111.893644,157.830795 C111.893644,157.834815 111.893644,157.842854 111.893644,157.850894 C111.893644,157.858933 111.893644,157.862953 111.893644,157.870992 C111.893644,157.879031 111.893644,157.887071 111.893644,157.89511 C111.893644,157.89913 111.893644,157.907169 111.893644,157.915209 C111.893644,157.919228 111.893644,157.927268 111.893644,157.935307 C111.893644,157.943346 111.893644,157.951386 111.893644,157.955405 C111.893644,170.279722 116.68668,181.864419 125.392891,190.579069 C134.103119,199.29372 145.681937,204.089189 157.995982,204.093209 C150.848613,204.097229 145.055187,209.893597 145.055187,217.048614 C145.055187,224.203632 150.848613,230 158,230 C157.995982,230 157.995982,230 157.995982,230" id="Fill-89" fill="#77BFB8"></path>
                    <path d="M158,231 L158,231 C165.175613,231 170.991933,225.167393 170.991933,217.967642 C170.991933,215.848164 170.487744,213.845986 169.592305,212.078407 C170.491778,213.845986 171,215.844119 171,217.967642 C171,223.9944 166.918089,229.066584 161.376047,230.559116 C161.372014,230.559116 161.372014,230.559116 161.36798,230.559116 C161.36798,230.559116 161.363947,230.559116 161.363947,230.563161 C160.291033,230.850342 159.165684,231 158,231" id="Fill-93" fill="#F0A689"></path>
                    <path d="M234.770414,296 C219.47202,294.955279 202.817715,294.213083 185.259469,293.833918 C179.282967,293.70484 173.201543,293.620133 167.035374,293.575763 C164.694813,291.316906 161.510842,289.929323 158,289.929323 C230.779353,289.929323 289.987485,230.743248 289.987485,158 C289.987485,165.179937 295.81064,170.996492 302.993742,170.996492 C310.176845,170.996492 316,165.179937 316,158 C316,217.250614 283.187751,268.982462 234.770414,296" id="Fill-98" fill="#92DFC5"></path>
                    <path d="M244,291 C219.227635,306.808767 189.686203,316 157.998501,316 C126.312268,316 96.7717698,306.808767 72,291 L244,291 Z" id="Path" fill="#77BFB8"></path>
                    <path d="M158,315.999633 L158,291 L244,291 C219.32767,306.808767 189.905531,316 158.345791,316 C158.230498,316 158.115235,315.999877 158,315.999632 Z" id="Combined-Shape" fill="#92DFC5"></path>
                    <path d="M592.99341,171 C585.81416,171 579.990856,165.180956 579.990856,157.997947 C579.990856,85.2195398 520.781212,26.012177 448,26.012177 C455.187321,26.012177 461.00659,20.1890973 461.00659,13.0060885 C461.00659,5.82307965 455.187321,0 448,0 C535.12357,0 606,70.8777345 606,157.997947 C606,165.180956 600.180732,171 592.99341,171" id="Fill-102" fill="#A2B0CE"></path>
                    <path d="M316.013179,158 C316.013179,150.812862 310.189875,144.993742 303.00659,144.993742 C295.823304,144.993742 290,150.812862 290,158 C290,70.8786555 360.880466,0 448,0 C440.816714,0 434.997446,5.82315531 434.997446,13.0062575 C434.997446,20.1893597 440.816714,26.012515 448,26.012515 C375.222824,26.012515 316.013179,85.2206472 316.013179,158" id="Fill-106" fill="#7EC5DD"></path>
                    <path d="M81.2356968,296 C32.817123,268.983278 0,217.248958 0,158.000134 C0,150.81638 5.82330405,145 13.0065897,145 C20.1858398,145 26.0091438,150.81638 26.0091438,158.000134 C26.0091438,230.741185 85.2228239,289.925473 158,289.925473 C154.493104,289.925473 151.305016,291.313014 148.968431,293.571803 C140.998212,293.628272 133.173273,293.753312 125.53397,293.95499 C109.884093,294.362378 95.0130772,295.060183 81.2356968,296" id="Fill-112" fill="#77BFB8"></path>
                    <path d="M522.087532,245 C518.736312,245 515.385091,243.713526 512.83004,241.148721 C507.719937,236.02318 507.723999,227.714025 512.838164,222.596627 C520.665802,214.759721 526.917351,205.766617 531.430328,196 C540.387226,198.340894 548.03207,203.975324 552.995938,211.52318 C552.995938,211.527252 552.995938,211.527252 552.995938,211.531323 C552.995938,211.535394 553,211.535394 553,211.539465 C547.434943,222.336075 540.167873,232.326604 531.340962,241.160934 C528.78591,243.717597 525.43469,245 522.087532,245 M522.087532,221.041459 C516.128453,221.041459 511.274261,225.902376 511.274261,231.87878 C511.274261,237.855184 516.128453,242.712031 522.087532,242.712031 C528.054735,242.712031 532.900803,237.855184 532.900803,231.87878 C532.900803,225.902376 528.054735,221.041459 522.087532,221.041459" id="Fill-121" fill="#7EC5DE"></path>
                    <circle id="Oval" fill="#6FB0C6" cx="84" cy="82" r="13"></circle>
                    <g id="Oval">
                        <use fill="black" fill-opacity="1" filter="url(#filter-2)" xlink:href="#path-1"></use>
                        <use fill="#FFFFFF" fill-rule="evenodd" xlink:href="#path-1"></use>
                    </g>
                    <circle id="Oval" fill="#6798C2" cx="553" cy="157.8" r="13.5"></circle>
                    <circle id="Oval" fill="#6798C2" cx="375.5" cy="82.5" r="13.5"></circle>
                    <circle id="Oval" fill="#8E9BB8" cx="522.5" cy="84.5" r="13.5"></circle>
                    <circle id="Oval" fill="#5F9C93" cx="448" cy="99" r="13"></circle>
                    <g id="Oval">
                        <use fill="black" fill-opacity="1" filter="url(#filter-4)" xlink:href="#path-3"></use>
                        <use fill="#FFFFFF" fill-rule="evenodd" xlink:href="#path-3"></use>
                    </g>
                    <circle id="Oval" fill="#6798C2" cx="52.5" cy="157.7" r="13.5"></circle>
                    <circle id="Oval" fill="#709AB5" cx="230.5" cy="233.5" r="13.5"></circle>
                    <circle id="Oval" fill="#5F9C93" cx="157" cy="217" r="13"></circle>
                    <g id="Oval">
                        <use fill="black" fill-opacity="1" filter="url(#filter-6)" xlink:href="#path-5"></use>
                        <use fill="#FFFFFF" fill-rule="evenodd" xlink:href="#path-5"></use>
                    </g>
                    <circle id="Oval" fill="#6798C2" cx="448" cy="13" r="13"></circle>
                    <circle id="Oval" fill="#5F9C93" cx="157" cy="302.7" r="13"></circle>
                    <circle id="Oval" fill="#6FB0C6" cx="522.5" cy="231.5" r="13.5"></circle>
                    <circle id="Oval" fill="#8E9BB8" cx="83.5" cy="232.5" r="13.5"></circle>
                </g>
            </g>
        </g>
    </g>
</svg>